<svg xmlns="http://www.w3.org/2000/svg" viewBox="0 0 1920 1080"><path d="M1920.11,574.87a335.09,335.09,0,0,1-42,27.18c-4,2.19-7.83,4.6-11.91,6.58-8.13,4-15,2.83-21.49-3.52a36.37,36.37,0,0,0-10.56-7.37c-10.53-4.76-17-12.69-18.45-24.46a21.45,21.45,0,0,0-2.09-7.72c-4.06-7.54-11.14-11.22-20.08-10.25a86.54,86.54,0,0,0-9.81,1.27c-5.5,1.26-9.61-.94-13.39-4.53-2.91-2.77-4.68-6.24-6.32-9.82-4.79-10.45-11.11-19.6-20.71-26.4-9-6.38-15.49-14.63-17.19-26.05a52.49,52.49,0,0,0-4.14-12.94c-2-4.58-5.36-6.43-10.33-6a23.35,23.35,0,0,0-12.4,5.07c-4.45,3.33-8.55,7.11-13.36,10-5,3-10.15,3.71-16,3.08a165.66,165.66,0,0,0-37.64,0,70.55,70.55,0,0,1-32.3-3.35c-6.8-2.4-13.67-4.66-20.4-7.25-10.26-3.94-17.29-10.68-19.33-22.08-1.41-7.88-2.73-15.82-5.67-23.39a19.7,19.7,0,0,0-10.62-11.45,218.66,218.66,0,0,0-34.28-12.32c-8.53-2.24-17.39-3.31-25.64-6.68-11.56-4.72-19.82-12.8-26.2-23.46-8.36-14-18-27-30.15-38.16-5.47-5-10.79-10-17-14.19-9.51-6.49-19.75-12-30.72-14.16-13.77-2.69-27-7.23-40.89-9.46a70.15,70.15,0,0,0-13.58-.54c-13.28.47-25-4.26-36.52-10.15-2.38-1.22-4.64-2.81-7.15-3.65-8.29-2.74-15-7.68-20.65-14.17-2.58-2.94-5.61-5.49-8.2-8.42-6-6.74-13.68-9.88-22.34-10.66-13.35-1.2-25.85-4.58-37.42-11.63-9.1-5.54-19.38-5.32-29.5-4-15.16,2-29.59.43-43.13-7.14a41.53,41.53,0,0,0-28-5,104.16,104.16,0,0,1-38.64-1.36,205.37,205.37,0,0,1-30.32-8.48,45.57,45.57,0,0,0-17.54-3.34c-4,.13-7.7-1.09-11.33-2.69-5.66-2.49-11.37-4.89-17.07-7.28a39.44,39.44,0,0,0-16.25-3.44c-8.43.23-16.81-1.78-25.27-.41a14.27,14.27,0,0,1-5.48-.69c-9.42-2.27-19-3.61-28.43-6.06-9.68-2.53-19.61-2.08-29.51-1.09-7.78.78-15.58,1.61-23.39,1.87a74.22,74.22,0,0,0-16.52,2.08c-10.78,2.85-21.53,2.65-32.44,1-9.63-1.44-19.38-1-29-.35-6.05.39-11.24,3.87-16.36,7a64.1,64.1,0,0,0-6.69,4.44c-6,4.78-12.86,5.06-20,3.87a52.82,52.82,0,0,1-5.47-1.06,67.69,67.69,0,0,0-30.56-1.28,43,43,0,0,1-19-1.28c-7.94-2.18-16-4.3-24.19-5a39.65,39.65,0,0,0-30.9,10c-3.49,3.13-4.34,7.77-3.94,12,.91,9.4-3.36,14.63-11.72,17.86-10.68,4.13-18.9,11.44-25.8,20.54a60.77,60.77,0,0,1-12.34,12.1c-4,3-7.34,6.64-10.81,10.16a11.18,11.18,0,0,0-2.81,12A50.31,50.31,0,0,0,560.18,316c4.72,5.72,9.59,11.32,14.37,17a40,40,0,0,1,9.77,26.72,110.49,110.49,0,0,1-.86,16c-1.25,8.29.47,15.68,6.39,22.32,7.42,8.34,14.56,16.84,24.11,22.89a95.48,95.48,0,0,0,17.67,8.87,154.43,154.43,0,0,1,27.62,13.78c11.21,6.94,22.63,13.37,35.24,17.81,11.67,4.1,22.35,10.67,32.41,17.9,8.86,6.36,17.31,13.31,26.29,19.56A38.51,38.51,0,0,1,765.87,513c5.15,10.18,13.57,16.91,23.17,22.48a77.28,77.28,0,0,1,17.26,12.93c10.46,10.83,22,20.57,33.05,30.73a43.2,43.2,0,0,1,7.18,8.48,27.34,27.34,0,0,0,15,11.33,116.07,116.07,0,0,0,26.58,5.59c11.65,1,18.91,8.55,25,17.36,2.82,4.09,2,8.7-1.45,12.53-2.78,3.05-5.53,6.12-8.36,9.12-6.87,7.27-12.63,15.15-15.52,25-1.2,4.08-4.35,6.86-8.2,8.85a47.37,47.37,0,0,1-12.81,4.48,62.41,62.41,0,0,0-25.48,10.64c-13.65,9.93-28.12,9.3-42.81,3-10.82-4.65-21.58-9.27-33.2-11.65-9.69-2-19.09-5.24-28.87-6.92-6.54-1.13-11.88-4.55-16.52-9.15C716,664,712.42,660,708.51,656.34c-8.19-7.68-17.73-11-29-8.57a191.17,191.17,0,0,0-23.11,6.9,24.82,24.82,0,0,0-9,5.4A263.72,263.72,0,0,1,616.81,685c-6,4.32-10.23,10.22-13.53,16.65a168.94,168.94,0,0,1-23.81,34.55A41.21,41.21,0,0,0,573,746a66.44,66.44,0,0,1-9.44,14.48c-8,9.44-13.35,20.3-18.08,31.54-2.56,6.09-5.12,12.16-8.2,18-4.61,8.78-6.34,18.29-6.78,28a26.18,26.18,0,0,0,3.12,13.13c3.15,6.07,3,12.26,1.2,18.63a70.1,70.1,0,0,0-2.39,10.22c-.84,6.93,2,9.69,9,8.75,5.31-.71,10.58-1.57,15.9-2.23,11.12-1.37,22.25-1,33.37-.92,7.21,0,14.42-.13,21.61,1a85.6,85.6,0,0,1,32.38,11.59,46.09,46.09,0,0,0,5.3,3.17,10.68,10.68,0,0,1,5.73,6.16,22.6,22.6,0,0,0,9.83,11.56c4.15,2.42,7.53,5.89,10.67,9.35,7,7.69,15.42,13.61,22.86,20.69A163.51,163.51,0,0,1,731,990.7c3.15,5.91,8.37,9.35,13.37,13.35,7.27,5.82,14.73,5.15,22.65,2.44a79.22,79.22,0,0,0,20.52-10c7.57-5.35,15.37-10.39,23-15.7a51.83,51.83,0,0,0,14.84-15.56c5.34-8.76,12.72-14.66,22.36-18.59,11.24-4.57,22.07-10.21,33.15-15.25,9.6-4.37,16.73-12.11,23.27-20.06a350.6,350.6,0,0,1,29.21-31.09c8.65-8.23,13.66-17.94,14.55-29.8a25.91,25.91,0,0,0,0-6.16c-2.37-13.58.38-26.75,3.48-39.77,2.26-9.53,8.73-12.35,18-9.1A33,33,0,0,1,982.92,805c8.17,9.23,16.45,18.38,22.84,29.13a69.17,69.17,0,0,1,9.35,29.79c.53,5.94,1.37,11.85,1.44,17.86.06,5.18,1.7,10.18,3.44,15,5,14,11.3,27.18,20.7,39.13,8.89,11.3,17.51,22.92,25.54,34.92a32.31,32.31,0,0,1,4.88,11.26c1.14,5.24,2.56,10.41,3.78,15.63,3,12.85,9.75,23.65,19,32.71,7.52,7.33,11.2,16.14,12.4,26.27,1,8.74-4,15-12.73,15.63a108.41,108.41,0,0,1-13.61.11,29,29,0,0,0-21.57,7.57h-3.72c7.61-7.06,16.37-10.9,27-10a81.07,81.07,0,0,0,11.13,0c7.63-.43,12-5.7,11-13.33-1.21-9.67-4.73-18.19-11.79-25.29-5.8-5.82-11.33-12-14.64-19.75-2.76-6.47-5.37-13-6.5-19.95A58.8,58.8,0,0,0,1054.52,959a40.24,40.24,0,0,1-3.7-4.94c-5.52-7.71-10.52-15.8-16.65-23.07a60.72,60.72,0,0,1-9.12-15.37c-4-9.29-8-18.53-10.21-28.49-1.54-7.1-1.35-14.36-1.92-21.52-1.34-16.5-7.64-30.62-18.18-43.09-6.37-7.54-12-15.75-20.26-21.56a23.46,23.46,0,0,0-7.12-3.61c-7.48-2.13-11.4-.2-13.6,7.36A91.43,91.43,0,0,0,951,818.62a134.46,134.46,0,0,0-.77,27.08c1,13.3-4,25.07-13.52,34.65-4.23,4.24-8.4,8.53-12.66,12.73-8.06,8-15.49,16.55-22.86,25.17a62.92,62.92,0,0,1-21.46,16.42c-11.59,5.39-23.27,10.6-34.92,15.85a34.38,34.38,0,0,0-15.31,13.12,73.62,73.62,0,0,1-27.2,25.55,104,104,0,0,0-10.16,7c-10.52,7.62-22,12.94-34.94,14.9a9.89,9.89,0,0,1-6.58-.87c-9.31-5.09-17.92-10.65-23-20.7-8.05-15.79-19.37-29.32-32.69-40.85-11.37-9.84-21.48-21.08-33.59-30.1a21.49,21.49,0,0,1-7.57-9.62,9,9,0,0,0-3.28-4.39c-14.19-10-29.84-15.78-47.25-16.35-8.45-.27-16.92-.08-25.37-.23a177.69,177.69,0,0,0-34.46,2.91,16.24,16.24,0,0,1-5.52.36c-7-1.06-8.66-3.15-8-10.28a53.58,53.58,0,0,1,2.43-10.85,25.63,25.63,0,0,0-1.17-19.23c-4.5-9.5-2.89-19.36-.7-29.11a31.76,31.76,0,0,1,2.54-7.62c7-13.58,11.38-28.44,19.46-41.42,8.69-13.95,17.94-27.61,27.77-40.79,7.78-10.43,15.66-20.69,21.56-32.35a49.54,49.54,0,0,1,18.14-19.91c9.42-5.83,17.14-13.53,25.42-20.61a35.67,35.67,0,0,1,10.37-6.6,180,180,0,0,1,23.06-7.07c12.36-2.91,22.77,1.17,31.84,9.33,4.14,3.71,7.93,7.82,11.76,11.86a27.62,27.62,0,0,0,14.38,7.94c12.87,2.95,25.68,6.13,38.5,9.28,7.66,1.88,14.73,5.34,21.89,8.51a54.61,54.61,0,0,0,17.15,4.92c9.38.88,18.06-.83,25.75-6.56a64.44,64.44,0,0,1,27.7-11.62,34.82,34.82,0,0,0,9.94-3.35c4-2.08,7.31-5,8.51-9.37,2.82-10.39,9.66-18.07,16.66-25.68,2.24-2.42,4.58-4.75,6.75-7.23,3.29-3.78,3.42-7.93.66-12-5.32-7.76-12.1-13.46-21.94-14.51a125.8,125.8,0,0,1-27.19-5.7,30.72,30.72,0,0,1-16.11-12,59.07,59.07,0,0,0-14-14.7c-7.66-5.69-14.18-12.63-20.65-19.54s-14.16-12.5-22.21-17.55c-4-2.52-8-5.13-11.75-8a43.85,43.85,0,0,1-12.15-14.67,44.72,44.72,0,0,0-15-16.21c-6.87-4.6-13.28-9.77-19.93-14.63-13-9.53-26.83-17.65-42.21-23-10.78-3.73-20.36-10-29.94-16a146.75,146.75,0,0,0-24.84-12.45c-9.62-3.78-19-8.14-26.94-14.9-5.69-4.81-11.08-9.89-15.34-16.05a16.92,16.92,0,0,0-2.19-3c-7.4-6.8-8-15.41-6.64-24.54a82.23,82.23,0,0,0,.42-19.13c-.76-9.21-5.35-16.72-11.22-23.64-6.13-7.22-12.6-14.18-17.7-22.24a38.93,38.93,0,0,1-4.38-10.18c-1.6-5.55-.07-10.2,3.72-14.22a56,56,0,0,1,7.22-6.74c7.38-5.44,13.48-12.08,19.1-19.23A49,49,0,0,1,595,245.12c3.68-1.86,7.4-3.65,11-5.56s5.69-4.69,5.54-8.91c0-.62.06-1.24,0-1.85-.69-11.45,5-18.73,15.13-23,8.92-3.76,18-5.59,27.71-3.16,7.79,2,15.71,3.42,23.58,5a41.08,41.08,0,0,0,15.39.22c8.65-1.53,17.16-1.88,25.7.57,2.37.68,4.87.89,7.27,1.46,8.24,2,15.94,1.27,22.81-4.21a55.81,55.81,0,0,1,5.66-3.79c7.68-4.7,15.68-7.69,25.06-7.4,11.14.35,22.23.67,33.27,2.28,5.38.79,10.68-.64,15.89-1.71a125.82,125.82,0,0,1,22.64-2.9c7.39-.18,14.75-1.42,22.13-2,10.1-.77,20.14-.87,30.13,1.57,9.6,2.36,19.32,4.23,29,6.27a7.5,7.5,0,0,0,3.07.23c7.41-1.62,14.76.55,22.17.25,8.38-.33,16.34,1.85,24,5.21,4.15,1.83,8.32,3.61,12.48,5.45a31.32,31.32,0,0,0,13.14,3c6-.06,11.87,1.6,17.44,3.82,16.26,6.47,33.29,9.44,50.6,10.63a70,70,0,0,0,17.82-1.48,37.08,37.08,0,0,1,26.23,4.62c13.72,7.9,28.25,9.64,43.62,7.6,10.81-1.43,21.49-1.12,31.23,4.65a74.58,74.58,0,0,0,33.87,10.7c13.48.82,23.86,7.37,31.93,17.78a45.81,45.81,0,0,0,21,15.65c7.54,2.75,14.28,7.38,21.87,10.16,6.07,2.23,12.24,4,18.7,3.61,14.3-.84,27.84,2.65,41.3,6.69,3.78,1.14,7.5,2.24,11.49,2.2a12.47,12.47,0,0,1,4.26.62c10.06,3.69,20.28,7,29.3,13a147.25,147.25,0,0,1,38.21,36.39c5.43,7.52,10.76,15,15.62,22.95,7.44,12.11,18.71,18.35,32.6,21.28,14.48,3.06,28.92,6.71,42.56,12.76a26.19,26.19,0,0,0,3.36,1.58c12.14,3.31,16.39,12.89,18.89,23.79a166.84,166.84,0,0,1,3.26,16.37c1.11,8.66,6.94,13.81,13.88,16.87a181.28,181.28,0,0,0,35.73,12c6.26,1.31,12.75.84,19.11.14a175.93,175.93,0,0,1,38.86,0c5.38.6,10.12-.13,14.73-3.09,4.89-3.13,9.3-6.84,13.88-10.36a23.62,23.62,0,0,1,11.9-4.74c5.62-.7,9.59,1.61,12.28,6.39a33,33,0,0,1,2.3,5.06,44.18,44.18,0,0,1,2.51,8.27c1.68,11.62,8,20,17.43,26.54,9.85,6.79,15.89,16.57,20.87,27.12a43.17,43.17,0,0,0,3.87,7c3,4.2,7.07,5.84,12.32,5.5,6.12-.4,12.1-2.37,18.41-.92,8.63,2,14.54,7.51,16.43,16.3.74,3.42,1.38,6.87,2.3,10.25a19.31,19.31,0,0,0,9.6,12.31c7,3.93,14.07,7.63,19.86,13.51,3.84,3.89,9.19,3,14.08,1.66a21.7,21.7,0,0,0,5-2.33c17.68-10.22,35.32-20.49,51.77-32.64Z"/><path d="M1920.11,458.5a29,29,0,0,0-12.74,1.92,103,103,0,0,1-23.35,5.86c-14.49,1.71-26.13-2.61-34.79-14.9-9.6-13.63-19.75-26.89-29.67-40.3-2.14-2.91-5.16-4.72-8.32-6.27a116,116,0,0,0-29.82-10c-10.82-2-21.14-5.66-31.44-9.24-11.83-4.12-23.79-7-36.32-6.15-11.27.78-20.83-3.34-29.07-10.16-11.91-9.86-24-19.41-36.69-28.26-6.48-4.52-12.32-9.5-14.72-17.65-1.19-4-3.69-5.29-7.7-4.55-4.22.77-8.51.92-12.68,2.49-6.91,2.59-13.9.35-20.61-1.45a108.54,108.54,0,0,0-37.91-3.18c-9.1.79-16.48,4.19-23.37,9.94-11.66,9.72-23,6.86-33.55-4.65-5.86-6.39-10.39-13.86-16.58-20a34,34,0,0,0-10-7c-9-4.1-17-10.15-25.47-15.17-2.84-1.68-5.4-3.95-8.4-5.21a59.15,59.15,0,0,1-21.27-15.64c-8.2-9.25-18.7-15.06-29.27-20.36a119.06,119.06,0,0,0-26.69-9.59,107.89,107.89,0,0,1-29.28-11.52,41.23,41.23,0,0,0-21.86-5.43c-17.35.38-33-5.15-48.16-13.58-14.21-7.93-29.7-12.28-46.31-10.78a35.57,35.57,0,0,1-23.5-5.86c-2.58-1.71-5.15-3.43-7.7-5.19a77.7,77.7,0,0,0-33-13.24c-3.66-.55-7.22-1.71-10.83-2.53a520.23,520.23,0,0,1-58.31-16.41c-8.17-2.9-16.88-3.77-25.43-5.13-11.83-1.89-22.63-6.23-31.65-14.37A23.78,23.78,0,0,0,1011,119c-5.3-.81-10.58-1.78-15.8-3-8.35-1.92-15.86-5.77-22.95-10.51-2.4-1.61-4.81-3.19-7.21-4.8-6.6-4.44-13.71-5.19-20.45-1.15-8,4.82-16.91,5.81-25.64,5.73-12.93-.12-25.42,2-38,4.45-7.49,1.46-15,2.65-22.39,4.72-4.23,1.19-8.59,1.14-12.88,1.6-7.17.76-14.32,2.54-21.42,2.61a170.92,170.92,0,0,1-22.82-1.06,90.7,90.7,0,0,0-14.8-.88,53.81,53.81,0,0,1-19.54-2.58c-11.61-4-23.13-3.3-34.68-.29-15.49,4-31.09,3.2-46.69,1.23-6.79-.86-13.14-3.56-19.36-6.33-10.37-4.62-21.33-6.49-32.51-6.65A92.45,92.45,0,0,1,604.74,97a46.32,46.32,0,0,0-17.64-2.6c-4.73.23-9.5-.18-14.22.09-9,.52-17.37,2.63-24.5,8.83a111.46,111.46,0,0,1-24.86,16.06c-5.37,2.6-10.48,5.75-15.66,8.73a48.48,48.48,0,0,1-18,6.08,198.35,198.35,0,0,0-20.6,4.06c-3.33.81-5.5,3.71-7.1,6.59a57.11,57.11,0,0,1-21.86,22.18,35.21,35.21,0,0,0-9.18,8.23c-8.74,10.41-19.09,19.45-26.37,31.09-2,3.15-4.33,6-6.2,9.24-3.81,6.51-2.45,13.63-1.91,20.57.33,4.2,2.32,7.85,4.86,11.21,10,13.25,23.17,21.39,39.63,24.05a91.7,91.7,0,0,1,13.3,2.81c7,2.21,10.36,7.16,10.84,14.23a89.92,89.92,0,0,1,.17,10.51c-.3,6.34,2.74,10.62,7.95,13.62,2.5,1.43,5.17,2.56,7.71,3.94,6.39,3.47,10.45,8.79,11.43,16a172.65,172.65,0,0,1,1.79,33.81A275.65,275.65,0,0,1,490.58,397c-2,11.53,1.29,21.59,9.62,30,7,7,14.09,13.89,20.5,21.47A29.41,29.41,0,0,0,533.42,457a42.32,42.32,0,0,1,10.37,5.46c5.74,4.11,9.85,9.31,11.25,16.42.91,4.65,2.36,9.23,2.91,13.92a32.59,32.59,0,0,0,6.44,15.84,72,72,0,0,1,6.46,10.49c3.42,6.82,9.93,10.89,15.44,15.79a140.16,140.16,0,0,0,15.9,11.73,80,80,0,0,1,16.14,13.41,17.51,17.51,0,0,0,14.36,6c15-.6,25.89,6.72,34.86,17.89a62.25,62.25,0,0,1,8.05,12.41c1.95,4.12,1.27,7.5-1.68,10.76a35.38,35.38,0,0,1-10.21,8c-16.42,8.31-31.14,19.35-46.83,28.84-6.25,3.78-12.24,7.81-16.65,13.6-8.5,11.15-16.93,22.42-23.31,35-4,7.79-9.14,14.58-14.49,21.44-9.24,11.84-18.57,23.64-25.53,37.14a362.69,362.69,0,0,1-23.13,38.74,60.48,60.48,0,0,0-4.22,7.55c-4,8.15-8.3,16.13-13,23.9A41.06,41.06,0,0,1,485.72,833c-3.13,2.34-6.38,4.51-8.86,7.66-6.48,8.24-7.7,17.63-6.07,27.55,1.38,8.33,3.33,16.52,3.68,25.05.37,8.94,5,16.06,12.06,21.43,4.26,3.23,9.45,4,14.63,4.33,7,.48,14-.8,20.95,1.06a3.32,3.32,0,0,0,2.41-.23c4.51-2.9,9.64-1.67,14.48-2.32,2.7-.37,5.31-.64,7.86.63,2,1,4,.53,6,.17,8.77-1.53,17.53-2.52,26.41-.62,9.78,2.08,19.73,1.33,29.61,1.22a53.06,53.06,0,0,1,30,8.24,220.35,220.35,0,0,0,19.92,11.26c4.47,2.24,9,4.2,14.09,4.22,3.09,0,5.17,1.43,5.91,4.42,1.06,4.3,3.85,6.61,8,7.68,3.45.89,5.67,3.31,7.06,6.46a24,24,0,0,0,8,10,13.2,13.2,0,0,1,5.16,7.53c1.84,7.33,5.45,13.68,9.68,19.88,3.72,5.45,5.49,12,8.31,17.94,6.56,13.85,17.18,23.41,31.24,29.28,2.37,1,4.78.61,7.28.26,15.73-2.23,29-10.24,42.5-17.72,9.61-5.31,18.14-12.18,27.6-17.68a119.46,119.46,0,0,1,36.11-14.19c8.4-1.73,16,.12,23.06,4.57,10.21,6.48,11.35,16.87,2.84,25.55a47,47,0,0,1-9,7.53c-8.85,5.3-15.68,12.52-21.75,20.73-6.62,9-15.21,16.25-21.94,25.15h-2.47c3.79-6.75,9.8-11.66,14.72-17.47s10.06-11.47,14.59-17.6a32.77,32.77,0,0,1,9.63-8.54,70,70,0,0,0,15.28-12.48c6.28-6.85,5.42-14.87-2.13-20.19a28.93,28.93,0,0,0-24.16-4.62A122,122,0,0,0,826.38,1018a326.76,326.76,0,0,1-41.64,24.32,41.53,41.53,0,0,1-12.9,4.1,11.05,11.05,0,0,0-3,.53c-10.25,4.71-18.18-.28-26.15-5.91-11.95-8.43-19.45-20-24.2-33.53A45.44,45.44,0,0,0,712,995.6a37.87,37.87,0,0,1-6.49-13.94c-.92-4-2.76-7.37-6.19-9.65a18.39,18.39,0,0,1-6.85-8.55c-1.41-3.42-3.53-5.91-7.33-6.9a11.56,11.56,0,0,1-8-7.17c-.82-2-1.74-3.89-4.16-4.09-11.17-.93-19.91-7.51-29.31-12.54-3.09-1.66-6-3.6-9.06-5.34a44.72,44.72,0,0,0-21.85-5.95c-4.33-.07-8.66-.09-13,0-6.82.09-13.63.15-20.34-1.26-8.87-1.86-17.64-1.15-26.38.77a11.69,11.69,0,0,1-6.07-.13c-6.7-2-13.39-1-20,.67-2,.52-3.86,1.52-6,.93-4.67-1.33-9.42-.9-14.15-.86a54.66,54.66,0,0,1-11.69-.89C482.63,918,475.33,909.84,473,897.75c-2-10.49-3.23-21.15-4.9-31.72-2.24-14.11,3.17-25.39,14.72-33.81a42.41,42.41,0,0,0,12.78-14.08c2.54-4.72,5.65-9.16,7.9-14,6-13,14.36-24.52,21.62-36.73,3.16-5.32,6.39-10.61,9.16-16.13,7.81-15.62,18.61-29.15,29.48-42.63a73.31,73.31,0,0,0,9.3-13.81c7-14.41,16.63-27,26.06-39.8a33.29,33.29,0,0,1,11.52-10.19c10.36-5.24,19.55-12.28,29-18.83,5-3.44,10.42-5.84,15.66-8.71,6-3.28,11.82-6.73,16.56-11.78,2-2.12,3.26-4.5,1.84-7.26-7-13.58-16-25-31.75-29-3-.77-6.15-.58-9.24-.66a22.9,22.9,0,0,1-16.62-7.06A113,113,0,0,0,595.44,545c-8.35-5.35-16.22-11.6-22.43-19.31a150.41,150.41,0,0,1-15.26-23.89,24,24,0,0,1-2-7.13c-.93-5.07-2.17-10.08-3-15.16A21.88,21.88,0,0,0,538,461.79c-12.37-4.35-20.65-13.36-28.92-22.54-3.6-4-7.1-8.05-11-11.68-9.45-8.69-12-19.65-9.65-31.63a234.44,234.44,0,0,0,3.93-33.73,126.39,126.39,0,0,0-2.5-30.72c-1.34-6.73-5.95-11.2-12.05-14a48.68,48.68,0,0,1-8.55-4.91,14.57,14.57,0,0,1-6.14-11.6c-.18-3.91,0-7.84-.25-11.75-.41-7.32-3.19-11-10.2-13a103.73,103.73,0,0,0-11.51-2.31q-27.06-4.46-42.72-26.93c-6.41-9.19-6.57-25.28-.48-34.61,7.46-11.42,16.16-21.8,25.26-32a112.3,112.3,0,0,1,22.13-19.53c6.12-4,10.64-9.7,14.15-16.11,3.15-5.76,7.18-9.48,14.39-9.93,6.94-.43,13.67-2.92,20.64-3.84a30,30,0,0,0,10.44-3.76c9.73-5.4,19.42-10.89,29.14-16.32a71.94,71.94,0,0,0,12.4-9.2c7.72-6.86,17-9,26.8-9.66,6-.38,12,0,17.94-.14,4.84-.07,9.39,1.26,13.89,2.77a96,96,0,0,0,28.5,4.94c11.58.27,22.92,2.06,33.68,7,20.75,9.44,42.35,9.43,64.24,5,7.87-1.6,15.71-3.36,23.88-2.37a47.16,47.16,0,0,1,9.05,1.83,63,63,0,0,0,20.07,3.17c11.35-.08,22.61,1.3,33.9,2.15a32.66,32.66,0,0,0,6.17.11c22.91-2.73,45.63-6.64,68.18-11.54,5.25-1.14,10.52-2.18,15.93-1.84,7.87.49,15.62-1,23.44-1.28,3.22-.14,6-1.53,8.6-3.18q13.2-8.23,26.11.42,3.09,2.07,6.18,4.11c9.41,6.23,19.47,10.77,30.78,12.19,3.07.39,6.12.94,9.15,1.54a20.78,20.78,0,0,1,10.45,5c10.07,9.34,22.31,14,35.67,15.64a127.07,127.07,0,0,1,27.1,6,361.52,361.52,0,0,0,44.57,12.69c8.86,1.91,17.64,4.15,26.49,6.11,12.06,2.67,22.6,8.83,32.51,16,7.67,5.58,16,8,25.56,6.78a44,44,0,0,1,14.78.42c12.38,2.58,24.2,6.36,35.29,12.76,12.46,7.2,26.05,11.71,40.67,11.09a46.57,46.57,0,0,1,26.57,6.55c9.67,5.75,20.5,8.5,31.15,11.8s20.89,7.06,30.72,12.58,18.31,12.49,26.38,20.19a76.81,76.81,0,0,0,16.55,11.75c9.75,5.33,19,11.58,28.45,17.43a19.8,19.8,0,0,0,3.76,2.13c8.82,3.08,14.86,9.42,20,16.81a91,91,0,0,0,12.44,14.56c9.72,9.07,18.37,9.14,28.45.6a39.46,39.46,0,0,1,21-9.43c10.61-1.4,21-.44,31.4.55,6,.56,11.39,3.53,17.4,4.17,4.54.48,8.78.72,13.33-.94,4.15-1.51,8.85-1.68,13.35-2.1,3.65-.34,6.9,1.36,7.82,4.84,3,11.26,12,17.09,20.67,22.81,9,5.92,17.2,12.76,25.42,19.63,5.23,4.37,10.62,8.54,17,11.13,5,2,10,3.19,15.63,2.55a61.52,61.52,0,0,1,25.07,2.56c18.91,5.86,37.73,12,57,16.45,6.48,1.49,12.23,4.91,18.26,7.55,3.65,1.6,6.34,4.61,8.66,7.79,6.09,8.31,12.3,16.53,18,25.13a137.27,137.27,0,0,0,14.84,18.88c6.7,7,16.07,10,26.09,8.77a110.64,110.64,0,0,0,25.2-6.11,29.9,29.9,0,0,1,13.32-2.1Z"/><path d="M1920.11,655.35c-10.8,3.44-21.63,6.8-32.4,10.34-9.82,3.21-16.8,10.21-23.16,17.93-8.92,10.86-14.7,23.31-18.57,36.75-1.25,4.35-2.51,8.73-4.1,13-2,5.24-4.51,6.7-10,6.15a22.51,22.51,0,0,1-10.82-4.2c-9.11-6.4-15.7-15.22-22.29-23.87-7.36-9.67-16.07-16.86-27.7-20.71a26.64,26.64,0,0,1-16.74-15.51,72,72,0,0,1-2.46-8.29c-1.67-6-3-6.67-9.32-6a48.87,48.87,0,0,0-18,6.1c-8.42,4.59-17,4.62-25.47.36a32.81,32.81,0,0,0-14.37-3.25c-7-.11-12.89-2.82-18.16-6.86s-10.22-6.3-17-5.58c-7,.74-14.87-8.41-13.74-16,1.19-8,.64-16,1.77-24,1.34-9.44-1.65-17.89-8.3-25-2.67-2.82-6.19-4.17-9.53-5.6-9.8-4.22-20.17-7.14-30.66-3.78-10.73,3.43-20.11,2.45-29.23-4.19-3-2.16-6.22-3.94-9-6.43-5.28-4.69-11.15-7-18.17-3.83a9.18,9.18,0,0,1-6.68.54c-6-2-12.27-3.62-17.69-7.21a19.47,19.47,0,0,1-5.89-6.23c-3.8-6.15-7.72-12.21-11.4-18.42a122,122,0,0,0-11.2-16.3,28,28,0,0,1-6.61-18.84c0-4.16-.21-8.24-2-12.12a17.32,17.32,0,0,0-6.06-7.64c-7.75-5.25-14.15-11.94-20-19.18a14,14,0,0,0-3-3.14c-6.94-4.56-11-11.41-15.72-18-7.14-10.1-15.46-19.21-25.83-26.34-8.23-5.66-17.34-8.34-27.05-9.83-8.78-1.35-17.67-1.18-26.48-2.25-9-1.1-17.21-3.62-24.84-8.62-11.55-7.57-23.46-14.59-34.29-23.23a32.62,32.62,0,0,1-6-6.15,21.83,21.83,0,0,0-16.84-9.12c-6.57-.46-13.2-.45-19.7-1.36-11.21-1.57-22.63-.48-33.77-3.46a126.4,126.4,0,0,1-29.23-11.54c-13.7-7.63-26.94-16-40.38-24.06a64.72,64.72,0,0,0-25.46-9.14,77.51,77.51,0,0,1-25.3-7.7c-7.3-3.62-15.1-5.21-23.2-6.09-9-1-17.92-2.69-26.86-4.14a48.74,48.74,0,0,0-15.39.05c-10,1.55-20,3.12-30.11,3-4.4-.06-8.48,1.66-12.76,2.32A106.5,106.5,0,0,1,962,290c-11.14-.47-21.61,2.29-32,6-13.62,4.93-26.64,4.89-38.09-5.73a33.22,33.22,0,0,0-14.46-8c-4.19-1.08-8.32-2.41-12.42-3.79-9.71-3.25-18.79-2.08-28.2,2-17.23,7.49-35.24,12.88-53.5,17.32-5.44,1.32-10.9,2.78-15.77,5.4-11.6,6.25-24.24,9.28-36.77,12.66a48,48,0,0,0-21.09,11.95c-8.55,8-14.86,17.61-22.3,26.38a9.93,9.93,0,0,0,2.44,15.38c2.29,1.39,4.32,3.22,6.68,4.46a39.86,39.86,0,0,1,12.87,10.36c4.87,6.06,11.65,9.87,18.82,12.64,8.07,3.11,16.38,5.63,24.58,8.41,4,1.35,8.16,1.06,12.23,1.74a76.24,76.24,0,0,1,13.72,3.65,40.36,40.36,0,0,0,18.17,2.57c6.06-.59,11.77,1,17.42,3.34,9.55,3.91,16.62,11.4,25.16,16.73,12.46,7.79,21,18.78,27.58,31.8,6,11.89,14,22.26,25.33,29.87,10.59,7.14,21.16,14.37,31.31,22.13,6.08,4.65,12.51,8.64,18.9,12.77A79.39,79.39,0,0,1,956.79,542c11.68,12.23,23.59,24.31,35.83,35.91,11.11,10.53,18,22.66,22.92,36.7a94.56,94.56,0,0,0,19.68,33.32,53.9,53.9,0,0,1,12.67,23.82c1.77,7,.13,13.06-5.63,17.76-4.68,3.81-10,3.54-15.31,2.09-7.55-2.07-15.05-4.38-22.48-6.87-5.82-2-11.55-2.69-17.61-1.15-5.18,1.32-10.5,2.15-15.74,3.24-7.51,1.55-10.8,5.39-10.26,13,.71,9.86,3.57,19.21,10.09,26.77a116.3,116.3,0,0,1,13.1,18c7.16,12.5,18.42,20.35,30.05,27.93,10.32,6.73,21.93,10.56,33.5,14.23,10.75,3.41,22.1,3.56,33.1,1.59,14.46-2.6,25.46,2.26,34.2,13.35,9.88,12.55,18.95,37.13,20.55,53,.75,7.42,1,14.81,1,22.22a42.62,42.62,0,0,0,2.39,12.72,258.72,258.72,0,0,1,8,29.87,47.61,47.61,0,0,0,7.31,17.58c7.08,10.7,13.32,21.84,15.36,34.82.9,5.7.08,11.53,1.62,17.21a209.44,209.44,0,0,0,11.11,31.46,37,37,0,0,0,6.74,9.59,26.68,26.68,0,0,1,6.93,17.44c.17,3.94.71,7.8,1.24,11.68a26.4,26.4,0,0,0,7.83,15.75c1.62,1.59,3,3.36,4.55,5h-3.72a9.62,9.62,0,0,0-1.08-1.51c-8-7.87-11.05-17.81-11.1-28.65a28.54,28.54,0,0,0-8.29-20.63,34.16,34.16,0,0,1-7.52-12.67c-3.42-9.72-7.31-19.27-9.54-29.4-1.13-5.11-.42-10.28-1.24-15.39-1.84-11.49-6.92-21.58-13.33-31a66.1,66.1,0,0,1-10.16-25,171.13,171.13,0,0,0-5.93-22.1,74,74,0,0,1-3.7-24.3c0-12.62-.91-25.25-6-37-4.61-10.5-7.82-21.68-15.77-30.62s-17.43-13.41-29.6-11.21a73.83,73.83,0,0,1-26.47.27,128,128,0,0,1-46.23-18.39c-12-7.68-22.1-17.18-29.49-29.44a106.64,106.64,0,0,0-10.63-14.43c-7-8.17-10-17.91-11.14-28.32-.87-8.05,3.58-13.86,11.58-15.6,5.84-1.27,11.76-2.2,17.56-3.64,5.44-1.35,10.61-.72,15.82.94,7.66,2.43,15.36,4.76,23,7.12a20.75,20.75,0,0,0,3,.71c11.53,1.71,18.83-6.12,16-17.5a49.57,49.57,0,0,0-11.33-21.76c-10.06-11-16.71-23.93-21.94-37.71-1.25-3.28-2.4-6.6-3.74-9.84a47.89,47.89,0,0,0-11.22-16.86c-5.38-5.11-10.07-11-15.4-16-12.83-12.23-24.91-25.25-38.6-36.57a9.92,9.92,0,0,0-1.48-1.12c-15.06-8.27-27.58-20.22-42.18-29.18a102.91,102.91,0,0,1-17.2-13.09,89.16,89.16,0,0,1-18.1-24.9c-5.87-11.65-13.67-21.47-24.81-28.58-4.68-3-8.87-6.72-13.31-10.09-7.87-6-16.5-10.41-26.54-10.65-4.93-.12-9.86.57-14.74-.66a41.7,41.7,0,0,1-5.35-1.43A62.55,62.55,0,0,0,758,408.92a5.46,5.46,0,0,1-1.23-.12c-14.21-4.24-28.74-7.64-41.36-16a4.91,4.91,0,0,1-1-.72c-7.75-8.73-17.65-14.69-27-21.42-6.3-4.52-6.81-10.34-2.48-16.71a189.79,189.79,0,0,1,28.36-32.59,23.45,23.45,0,0,1,7.28-4.6,41.92,41.92,0,0,1,5.25-1.84c16.66-4.11,32.56-10.3,48.48-16.65,10.1-4,20.94-6.19,31.5-9,11.38-3.08,22.21-7.67,33.1-12.07,7.55-3.05,15-4.11,22.92-2,6.59,1.76,13.06,3.85,19.53,6a31.23,31.23,0,0,1,11,6.7c11.72,10.48,24.73,10.75,38.66,5.39,9.7-3.73,19.69-6.11,30.19-5.69a102.85,102.85,0,0,0,29.44-3,19.23,19.23,0,0,1,4.89-.62,130.93,130.93,0,0,0,27-2.61c8.51-1.66,16.85-.69,25.21.41,8.58,1.12,17,3.19,25.66,3.94,8.35.71,15.93,4.23,23.37,7.78,6.08,2.89,12.45,4.24,19,5.23a76.5,76.5,0,0,1,29.36,10.84c13.65,8.51,27.23,17.18,41.49,24.62,13.65,7.13,28.09,11.79,43.78,11.76,4.51,0,9,.81,13.54,1.13,7,.49,14,.74,20.92,1.34,5.63.49,11,1.81,15,6.4,11,12.75,25.42,20.86,39.26,29.8,2.43,1.57,4.92,3,7.36,4.57a33.45,33.45,0,0,0,13.15,5.16,211.43,211.43,0,0,0,21.48,2.34c15.44.67,30.36,3.34,43.15,13,6.3,4.75,11.66,10.47,16.85,16.34,4.63,5.24,9.28,10.52,12.24,17a13.09,13.09,0,0,0,4.44,5.08c5.57,4,9.9,9.28,14.55,14.25a87.53,87.53,0,0,0,12.4,11.09c7.5,5.42,11.28,12.4,10.88,21.6a27.33,27.33,0,0,0,6.85,20c4.13,4.68,7.24,10,10.45,15.3,3.74,6.17,7.52,12.31,11.28,18.47a17.67,17.67,0,0,0,6.55,6.44c4.72,2.6,9.9,4.08,15,5.75,2.61.86,5.3.18,7.87-.81,6.27-2.42,12-.73,16.65,3.45s10.08,7.14,15.34,10.37c6,3.67,12.32,4.16,19,1.92,13.13-4.37,25.74-1.92,37.8,3.83a31,31,0,0,1,17.55,33.14c-1.22,7.78-.62,15.62-1.72,23.42-1,7,6,13.42,13.16,12.91a18.15,18.15,0,0,1,13.27,4c6.41,5.16,13.23,8.78,21.9,8.62,4.67-.08,9.22,1.63,13.64,3.63,7.88,3.56,15.8,3.81,23.65-.77a50.21,50.21,0,0,1,19.91-6.34c4.75-.53,7.47.69,9.4,5.08a52.84,52.84,0,0,1,2.07,7.11c2,7.12,6,12.61,12.68,15.92,3.71,1.82,7.31,4,11.19,5.29,8,2.72,13.68,8.21,18.64,14.69a196.54,196.54,0,0,0,20.72,23.74c3.16,3,6.54,5.71,10.94,6.74,6.27,1.45,8.65.18,10.87-5.87,2.78-7.55,4.54-15.42,7.46-23,5-12.93,12.71-24,22.2-33.94a43.18,43.18,0,0,1,17.81-10.85c10.73-3.63,21.59-6.92,32.39-10.36Z"/><path d="M1920.11,753.15c-3.11,3.3-6.14,6.69-9.36,9.88a29.86,29.86,0,0,0-7.94,13.76A59,59,0,0,1,1886,805.15c-8.68,8.2-12.55,18.74-12.92,30.52-.24,7.62-.09,15.26.1,22.89a43.2,43.2,0,0,1-2.62,16.4c-3.88,10.29-6.15,21-8,31.75a172.67,172.67,0,0,1-5.31,22.25,113.89,113.89,0,0,0-4,18.72,55.81,55.81,0,0,1-3.44,13.14c-3.08,7.8-9,11.24-17.15,9.64-12-2.34-22.09-7.7-28.25-19-3-5.44-3.53-11.46-4.09-17.34-1.29-13.53-5.6-26.17-10.27-38.76-4.3-11.59-9.7-22.78-12.62-34.87a47.36,47.36,0,0,1-1.55-6c-1-8.55-4.86-15.73-10.28-22.1a142.84,142.84,0,0,1-17.1-25,26.7,26.7,0,0,0-7.27-8.33c-5.89-4.61-10.3-4.53-16.23.06A109.48,109.48,0,0,0,1710.77,812a27.85,27.85,0,0,1-6.68,5.46c-5,2.9-8.8,2.52-12.8-1.7a57.49,57.49,0,0,1-6.44-8.29c-5.68-8.8-13.75-11.11-23.61-9.43-5.48.93-11,1.5-16.55,2.19-9.86,1.24-18.85-.66-26.37-7.57-7.12-6.56-15.45-9-25.12-10.24-10.48-1.31-21-2.79-31.45-5.89s-17.16-8-21.59-17.43a25.06,25.06,0,0,0-8.68-10.31,13.43,13.43,0,0,1-3.53-3.44c-3.78-5.52-9.39-8.6-15.14-11.38A43.54,43.54,0,0,1,1497,721.35a23.89,23.89,0,0,0-4.86-4.72,23.74,23.74,0,0,1-6.06-6.14c-4.2-6.41-9.51-11.91-14.47-17.69-6.35-7.41-9.59-15.29-7.66-25.55,1.64-8.64,1.43-17.61-1.86-26.23a41.32,41.32,0,0,1-2.53-15.19c.1-10.72-1.53-21.37-1.29-32.12.2-8.81-4.63-15.69-10.2-21.92-4.12-4.61-8.46-9-12.4-13.79a33,33,0,0,0-8-6.82,30.78,30.78,0,0,1-5.1-3.48c-7.66-7.43-16.77-9.65-27.24-8.86-9.15.7-16.59-3.29-23.08-9.86-5.78-5.85-11.48-11.85-18-17a33.47,33.47,0,0,1-6.34-6.73c-3-4.16-6.2-8.24-9.35-12.32-2.71-3.5-6.06-5.29-10.72-4.7-6.65.85-13.17-.38-19.57-2.12a37,37,0,0,1-15.09-8.22c-3.94-3.55-8.56-5.5-13.48-7.24-10.44-3.68-19.71-9.14-26.82-18-5.11-6.39-11.77-11.28-19.79-13.1-10.28-2.33-20.08-6.32-30.45-8.19-.21,0-.4-.12-.61-.14-11.84-.88-21.78-6.36-32.14-11.72-8.78-4.54-17.49-9.11-26-14.19-8.27-5-17.73-6.73-26.77-9.43-7.84-2.34-14.75-6.17-21.82-10-9-4.91-18.11-9.86-28.37-11.85-9.82-1.91-18.85-6-27.82-10.17-4.83-2.25-9.42-2.08-14.38-.53-7.25,2.27-14.09,5.6-21.86,6.56a52,52,0,0,1-26.1-3.14c-11.26-4.52-22.77-8.42-33.45-14.48-7.83-4.45-16.53-7.41-25-10.74-3.22-1.27-6.8-2.52-10.17-2.4A60.62,60.62,0,0,0,880,346.86c-3,1.75-4.2,5.06-4.58,8.43-1.35,11.94.08,23,9.45,31.9,2.5,2.36,4,5.72,6.26,8.41,13.28,16,26,32.73,43.53,44.43,7.17,4.8,12.9,10.75,18.75,16.8a76.72,76.72,0,0,0,6.46,5.74c4,3.28,8,6.71,10.9,10.92C978.56,484.7,989.1,493,999.1,501.9a49.75,49.75,0,0,1,6.28,5.93c9.56,12.11,21.47,21.59,33.79,30.65,9.39,6.89,16.63,15.4,19.64,26.95,3.77,14.47,12.27,26.48,20.11,38.83a326.27,326.27,0,0,0,30.25,40.59,38.93,38.93,0,0,1,5.94,8.64c4.93,10.11,11.17,19.3,19.63,26.77,6.14,5.42,9.76,12.18,11.82,19.9,4.31,16.06,11.52,30.77,19.56,45.29,6.87,12.42,12.18,25.7,17.24,39,4.19,11,9.8,21.36,15.18,31.8,4.21,8.16,10.66,14.47,17.71,20.39,17,14.31,30.44,31.24,35.87,53.48a206.11,206.11,0,0,1,4.7,24.26c1,8,3.51,15.69,5.5,23.47,2.73,10.65,4.63,21.34,4.21,32.38-.19,5.36-.14,10.73-.1,16.09.07,8.84,3,16.62,9.26,22.91a84.37,84.37,0,0,1,14.44,20c4.19,7.8,8.84,15.35,13.2,23.06a46.82,46.82,0,0,1,6.61,22.93,23.6,23.6,0,0,0,1,4.8h-3.72c1-10.94-1.94-20.93-7.8-30a187.81,187.81,0,0,1-10.47-18.23c-4.29-8.64-10.32-15.88-16.59-23a33.91,33.91,0,0,1-8.42-21.43,134.3,134.3,0,0,1,.06-13.61c.79-14.63-1.87-28.77-5.87-42.71a137.32,137.32,0,0,1-4.31-20.56,134.57,134.57,0,0,0-6.25-27.1c-6.65-19.06-18.79-34.1-34.71-46.27a59.65,59.65,0,0,1-16.78-20.38,479.54,479.54,0,0,1-20.29-44.43,232.71,232.71,0,0,0-16.26-34,137.22,137.22,0,0,1-13.17-30.62c-.89-3-1.89-5.9-2.71-8.88a32.44,32.44,0,0,0-9.62-15.55,89.14,89.14,0,0,1-21-28.83c-2-4.45-5.42-7.86-8.6-11.26-5.68-6.07-10.13-13-15.13-19.53-7.91-10.34-14.37-21.62-21.53-32.44-5.18-7.82-8.62-16.44-11.34-25.34A45.81,45.81,0,0,0,1038,540.35a242.38,242.38,0,0,1-20-15.62,24.61,24.61,0,0,1-3.18-2.93c-9.72-11.86-21.45-21.67-32.49-32.19a147.74,147.74,0,0,1-13.43-14.51,77.06,77.06,0,0,0-13.28-12.93,13.09,13.09,0,0,1-2.39-2c-10.59-13.16-25.2-21.68-37.67-32.68-6.4-5.66-10.52-13.24-16.5-19.21-7.63-7.61-13.05-17-20.29-24.89a19,19,0,0,1-3-4.66c-3.8-8-3.78-16.43-2.67-24.88a13,13,0,0,1,7.23-10.23c8-4.07,16.77-6.11,25.48-7.11,6-.69,12.22,1.77,17.82,4.49a120.09,120.09,0,0,0,17.71,7.28c3,.91,5.34,3.18,8.13,4.42,13,5.74,25.63,12.34,39.91,14.63,8.41,1.35,16.42.15,24.34-2.48a61.05,61.05,0,0,0,6.93-2.65c8.14-3.91,15.93-3,23.64,1.27a79.34,79.34,0,0,0,22.69,8c10.47,2.16,20.06,6.7,29,12.11a111.43,111.43,0,0,0,30.72,12.63,82.59,82.59,0,0,1,26.88,12.21,49.73,49.73,0,0,0,13.14,6.76,45.19,45.19,0,0,1,12.53,6.65,33.1,33.1,0,0,0,14.88,5.65,126.11,126.11,0,0,1,24.67,5.76,50.61,50.61,0,0,0,8.94,2.46c10.88,1.79,19.59,7.26,26.92,15.26,4.32,4.72,8.72,9.29,14.53,12.35,4,2.13,8,4.31,12.4,5.47a30.15,30.15,0,0,1,12.88,7c9.27,8.43,20.7,10.83,32.75,10.06,5.78-.38,10.13,1,13.33,5.76,10.22,15.25,24.08,27,37.46,39.27a21.38,21.38,0,0,0,13.54,5.42,74.34,74.34,0,0,0,9.9,0c6.1-.49,11.23,1.73,16.28,4.82,14.87,9.1,25.9,22.17,36.88,35.31a26.63,26.63,0,0,1,6.2,18.37c-.36,11.17,1.38,22.22,1.36,33.36a35.79,35.79,0,0,0,2.38,12.72c3.42,9,3.24,18.29,1.79,27.47-1.17,7.45,0,13.88,4.76,19.7,10.71,13.07,21.22,26.31,33.67,37.84,4.78,4.43,11.12,6.2,16.27,10,2.83,2.11,5.24,4.54,7.82,6.88a93.67,93.67,0,0,1,18.06,22.48,15.12,15.12,0,0,0,12.72,7.77,15.27,15.27,0,0,1,5.24,1.74c2.28,1,4.59,2.1,7,2.25,8.45.5,16.63,2.89,25.1,3.36,7.12.4,13.79,2.58,19.22,7.5,5.93,5.36,12.35,9.47,20.65,10.16,5,.42,9.83-.63,14.72-1.09,4.72-.45,9.38-1.42,14.1-1.82,8.52-.72,15.27,2.5,20.18,9.59a88.15,88.15,0,0,0,6,7.89c4.64,5.34,8.48,5.64,13.71.79,5.89-5.46,11.67-11,18-16,7.9-6.27,14.25-4.76,21.89,2.12,3.54,3.19,5.93,7.46,8,11.7,2.75,5.64,6.53,10.48,10.49,15.24,7.18,8.64,13.11,17.71,14.91,29.3,1.71,11,6.45,21.3,10.63,31.61,7,17.28,12.68,34.84,14.34,53.56.89,10.06,6.48,17.08,15.34,21.74,4.21,2.22,8.26,4.51,13.1,5.26,8.62,1.33,12.66-.81,15.75-9.09a53.12,53.12,0,0,0,2.84-11.38,97.83,97.83,0,0,1,3.72-17.53c3.38-10.22,5.2-20.8,7.12-31.35a133.87,133.87,0,0,1,5.73-21.5,52,52,0,0,0,3.34-20c-.26-6.6-.21-13.21-.15-19.81.12-13.63,4.83-25.48,14.62-35a54.61,54.61,0,0,0,15.16-25.78,35.63,35.63,0,0,1,7.93-14.55c3.82-4.31,7.86-8.42,11.8-12.62Z"/><path d="M1852,1080a315.43,315.43,0,0,0-18.74-26.14c-10.55-13.34-25-18.16-41.43-18.37a23.75,23.75,0,0,0-6,1.18c-1.8.45-3.51,1.26-5.32,1.64-14.41,3-21.11-.72-27.23-11.13a46,46,0,0,1-5.71-15,178.81,178.81,0,0,0-5.64-21.53,21,21,0,0,1,.28-13.92,83.39,83.39,0,0,0,5-21.6c.84-10.86-1.59-19.95-10.39-26.93a206.37,206.37,0,0,0-24.77-17.4c-7.3-4.2-13.89-3-20.28,1.34-4.6,3.12-8.86,6.73-13.26,10.14-1.79,1.39-3.46,2.94-5.3,4.26-5,3.57-10.61,3.29-15.34-.64-2.58-2.14-4.3-5-6.33-7.58-4.29-5.46-5.61-5.9-12.12-4.22a53.8,53.8,0,0,1-6.05,1.16,64.07,64.07,0,0,0-15.58,3.81,26.9,26.9,0,0,1-18.15,1.26,21.37,21.37,0,0,1-13-9.74c-1.93-3.17-3.92-6.31-6.09-9.32-4.81-6.67-11.25-9.29-19.44-7.7a91,91,0,0,1-14.08,1.92,18.16,18.16,0,0,1-14.49-5.66c-1.72-1.78-3.49-3.51-5.27-5.23a18.86,18.86,0,0,0-11.52-5.35c-7.22-.78-14.11-3.09-20.78-5.84a21,21,0,0,0-16.24-.4,24.56,24.56,0,0,1-9.1,1.37c-9.08,0-18.16.29-27.23.09-11.55-.26-22.58-2.33-31.42-10.72-1.68-1.58-3.66-2.82-6.08-2.64-7.31.53-11.41-4.09-14.7-9.49a54.81,54.81,0,0,1-6.79-17.2,42.48,42.48,0,0,0-6-14.14c-3.54-5.56-6.63-11.4-9.82-17.18a28.91,28.91,0,0,1-3.22-9.32c-2-12.26-6.07-24-9.75-35.78-3.61-11.61-10.81-21.27-16.89-31.53a12,12,0,0,0-2.94-3.15c-9.81-7.83-16.68-18.21-23.83-28.24-3.68-5.14-5.67-11.5-7.12-17.69-1.88-8-4-16-4-24.37,0-3.61-1.52-6.81-3.43-9.81a16.85,16.85,0,0,1-2.19-13.65c.39-1.58,1-3.37.6-4.86-2-8.16-3-16.56-6.14-24.44-.22-.57-.76-1-.89-1.62-2-8.56-8.74-12.1-16.07-14.75a57.45,57.45,0,0,1-12.73-6.25,17,17,0,0,0-13-2.57,8.55,8.55,0,0,1-1.82.34c-6.47-.41-12.91-1.9-19.41-.19-.66.17-1.59-.39-2.31-.76-9-4.65-18.21-8.83-26-15.47-3.33-2.84-7.45-4.43-11-6.89-14.53-10.13-29.55-19.57-43.13-31.06-6.28-5.31-13.23-9.82-20-14.58-3.52-2.5-7.55-4.26-10.58-7.47a8.86,8.86,0,0,0-4.26-2.43,63.64,63.64,0,0,0-14-2c-4.66-.13-6.26,2.76-4.11,6.95a24.49,24.49,0,0,0,3.21,4.53c7.86,9.28,12.54,20.32,17,31.39,2.79,6.89,6.08,13.54,9.12,20.31a35.09,35.09,0,0,0,11.41,13.65,43.42,43.42,0,0,1,14,16.86,132.25,132.25,0,0,0,19.35,29.37,296.43,296.43,0,0,1,18.45,24c5.63,8.13,11.71,15.94,17.57,23.92,1.21,1.66,2.7,3.26,3.39,5.14,5.2,14.08,12.23,27.52,14.78,42.52a70.76,70.76,0,0,1,.54,11.73,223.6,223.6,0,0,0,2.39,30.15c2,14.56,9.73,25.25,22.92,31.67,7.15,3.48,13.34,8.22,19.44,13.12,7.42,6,11.49,14.5,16.2,22.45,3.67,6.2,6.57,12.84,10.73,18.79,2.38,3.39,3.62,7.39,4.89,11.32a108.13,108.13,0,0,0,7.06,17.15c2.3,4.38,5.61,7.58,10.66,8.68,3.67.79,6.9,2.72,10.17,4.47a101.36,101.36,0,0,0,24.73,9.55c6.64,1.55,11.89,5.65,16.8,10.09a188.71,188.71,0,0,1,24.27,27.19A51.25,51.25,0,0,1,1399,961.35a25.84,25.84,0,0,1-3.4,13c-2.64,4.66-4.89,9.54-7.22,14.37a17.59,17.59,0,0,0-.56,14.4,164.65,164.65,0,0,0,8.53,19.2c3.38,6.42,4.62,12.65.66,19.33-2.7,4.55-3.14,9.66-3.2,14.93-.08,7.86,1.11,15.62,1.34,23.45h-2.48c0-7.22-1.24-14.36-1.35-21.59-.1-6.78.78-13.25,4-19.16,2.66-5,2.14-9.44-.29-14.11-3.52-6.79-6.42-13.84-9.26-20.93-2.47-6.16-2.25-12,1.09-17.81,1.85-3.22,3.1-6.79,5-9.93,7.42-12.06,5.15-24.13.22-36.16-2.94-7.16-8.13-12.9-13-18.72a149.33,149.33,0,0,0-23.38-22.89,20.72,20.72,0,0,0-8.33-3.91,92.72,92.72,0,0,1-25.84-10.06,38.31,38.31,0,0,0-10.26-4.21c-4.9-1.08-8.42-4.16-10.78-8.58a112.29,112.29,0,0,1-8.11-19.38,58.38,58.38,0,0,0-6.75-13.84c-3.53-5.56-6.6-11.42-9.71-17.23a97.33,97.33,0,0,0-8.27-13.07C1261,799.7,1252,794,1242.49,788.89c-11.88-6.32-20.1-15.63-23.41-28.84a68.57,68.57,0,0,1-1.7-10.37c-.66-7.38-1.54-14.79-1.51-22.19.05-12.79-1.77-25-7.7-36.52a39.65,39.65,0,0,1-2.71-7.57,54.24,54.24,0,0,0-10.87-20.63c-10.51-12.47-18.31-27-29.14-39.19a177.48,177.48,0,0,1-21.62-30.81,14.42,14.42,0,0,1-1.26-2.12c-2.71-8-8.23-13.46-15-18.24A34.1,34.1,0,0,1,1116.83,559c-3.44-7.25-6.84-14.52-9.88-22-4.43-10.86-9-21.73-17.1-30.62-2.78-3-5.56-6.92-3.2-11.15s7-3.14,11.17-2.78c7.16.61,13.07,3.26,19.15,7.44,22.43,15.42,43.07,33.33,66.14,47.77,12,7.53,23,16.74,36,22.75,3.9,1.81,7.52,3.15,11.79,1.67,1.32-.46,3.06-.88,4.22-.4,4.64,1.92,9.25,1.3,14,.67a10.77,10.77,0,0,1,7.21,1.26c7.54,4.72,16,7.56,23.81,11.74,4,2.14,6.31,5.39,8.63,9.25,5.18,8.6,4.91,18.66,8.38,27.66.82,2.12.34,4.51-.26,6.72a16.37,16.37,0,0,0,2.23,14.17c2.35,3.48,3.06,7.52,3.4,11.73,1.57,19.75,6.83,38.07,20.82,53,4.64,5,9.19,10,13.79,15,8.14,8.87,13.91,19.45,18.32,30.59a175.42,175.42,0,0,1,10.6,36.8c1.61,10.2,7.22,18.36,12.23,26.81,3.51,5.93,6.53,11.86,8,18.63a49.27,49.27,0,0,0,6.77,15.86c2.79,4.45,6.3,7.61,12,6.94,2.48-.29,4.28,1.1,6.13,2.47,3.49,2.55,6.73,5.44,10.75,7.24,6.55,2.94,13.54,3.54,20.54,3.73,7.42.2,14.85-.1,22.28-.07a52,52,0,0,0,15.27-1.75,23.26,23.26,0,0,1,15.17.86c7.31,2.78,14.71,5.39,22.63,6a14,14,0,0,1,7.87,3.31c2.06,1.71,4.51,3.15,6.08,5.23,6,8,14.12,8.35,22.87,6.82a29.52,29.52,0,0,0,3.63-.73c10.32-3.14,18.15.69,24.41,8.74a89,89,0,0,1,5.2,7.67c5.57,9,14.17,13.06,24.32,10.07,9.12-2.69,18.34-4.61,27.56-6.77,5.46-1.28,9.26.13,12.52,4.16,2.21,2.72,4.16,5.65,6.8,8,4.9,4.39,8.7,4.8,13.69.41,4.5-4,9.4-7.37,14-11.16a40.71,40.71,0,0,1,8.42-5.15,16.88,16.88,0,0,1,16,.2c11.27,5.85,21.26,13.46,30.68,21.79,6.5,5.74,8,13.67,7.91,22a61.93,61.93,0,0,1-4.52,23.54,23.23,23.23,0,0,0-.35,17.49,160.75,160.75,0,0,1,5.52,20.93,40.47,40.47,0,0,0,6.94,15.74c4.54,6.15,10.64,9,18.33,7.49,3-.58,6-1.48,9-2.33,2.58-.74,5.13-1.65,7.85-1.6,14.09.27,26.69,4.4,37.28,14.07,7.25,6.61,12.25,15,18.19,22.63,2.65,3.41,5.2,6.91,7.8,10.37Z"/><path d="M737.77,1080c-.2-.58-.24-1.32-.63-1.73-5.4-5.56-8.72-12.41-12.12-19.24a37.13,37.13,0,0,0-6.56-8.93,50.07,50.07,0,0,1-6.48-8.26c-7.65-12.53-17.17-23.7-25.86-35.46a64.72,64.72,0,0,0-32-23.29c-14-4.65-27.36-10.31-39.55-18.68s-26.2-11.89-40.77-13.1c-12.53-1-25-2.52-37.44-4.33a137.86,137.86,0,0,0-36.3-.15c-11.64,1.38-23.3,3-35.1,1-4-.67-8.24-.36-12.36-.28a179.52,179.52,0,0,1-25.91-1.43c-10.11-1.28-17-6.63-20.58-16.34-2.53-6.9-2.62-14.17-3.57-21.29a56.12,56.12,0,0,0-5.65-18.85c-1-2-2-4.07-2.84-6.18A20.29,20.29,0,0,1,396.05,864a29.26,29.26,0,0,1,5.4-6.74c7.93-6.66,12.64-15.61,17.86-24.27,8.89-14.72,18.89-28.6,33.26-38.59,10.38-7.22,19-16.45,28.76-24.37,2.24-1.82,4.37-3.78,6.69-5.49,7.21-5.36,12.75-12.25,18.05-19.37,5.17-6.94,11.56-12.88,16.23-20.25,4-6.36,7.29-12.84,7.83-20.55.35-4.94,2-9.66,3.53-14.39,3.07-9.67,5-19.42,3.79-29.76-.93-8-.13-16,1.07-24,2.74-18.55-.57-36.25-13.76-50.06a127.46,127.46,0,0,1-19.44-26.82c-3.72-6.71-8.89-12.37-13.86-18.16a72.17,72.17,0,0,1-15-26.79c-2.12-7.22-7.21-12.43-12-17.74-4.16-4.57-8.69-8.81-13.12-13.12a29.68,29.68,0,0,1-9.19-21.64c-.08-14.76-6.24-26.06-17.55-35.09-7.88-6.3-15.61-12.74-24.29-18a36.39,36.39,0,0,1-17.44-24.47c-1.56-7.47-3.53-14.86-4.86-22.36-1.49-8.4-6.81-13.38-14-16.79-13.16-6.26-27.34-9.21-41.48-12.1-10.71-2.19-21.4-4.44-32-7.06A141.9,141.9,0,0,0,271,322.67,104.27,104.27,0,0,1,231.86,310c-10.15-5.54-20.92-9.77-31.56-14.23-5.6-2.34-10.32-6-15.6-8.8-2.39-1.26-4.74-2.63-7.45-2.86-6.4-.56-12.57-2.2-18.76-3.79a132.58,132.58,0,0,0-41.1-3.75c-12.29.75-23.28-2.81-33.89-8C71.83,263,60.32,256.81,50.06,248.77c-11.39-8.92-24.39-12.59-38.53-13.06-3.93-.14-7.83-.21-11.64-1.3v-2.48c7,1.95,14.34,1.17,21.48,2.27,9.55,1.47,18.39,4.42,26.28,10.05,15.82,11.3,32.22,21.54,50.8,27.82a35.83,35.83,0,0,0,12.74,2,232.07,232.07,0,0,1,34.57,1.32,88.43,88.43,0,0,1,9.09,1.78c7.23,1.68,14.36,3.79,21.8,4.43a17.94,17.94,0,0,1,8.07,2.94c13,8.16,27.34,13.49,41.14,20,3.55,1.67,7.29,3,10.62,5,12.55,7.61,26.59,9.71,40.73,11.54,1.64.21,3.29.35,4.9.71,19.72,4.36,39.44,8.79,59.17,13.12a125.29,125.29,0,0,1,25.62,9.08,22.35,22.35,0,0,1,13,15.62c1.71,7.43,3.51,14.85,4.89,22.35,2.2,12,8.48,20.77,19.08,26.69,9.42,5.26,17.45,12.44,25.5,19.48,10.14,8.87,15.05,20.15,15.22,33.84a29.38,29.38,0,0,0,12.13,24c6.57,4.88,11.32,11.38,16.61,17.41a28.46,28.46,0,0,1,5.38,10.37,77.14,77.14,0,0,0,18.35,30.43,83.14,83.14,0,0,1,13.31,19.3c3.25,6.23,6.56,12.46,12.09,17,11.13,9.25,16,21.68,18.42,35.44,1.29,7.2,2,14.41-.06,21.46-2.34,8.16-1.83,16.36-.89,24.5,1,8.64-.47,16.86-2.8,25-2,7.13-4.24,14.15-5.29,21.57-1.52,10.84-8.18,19.19-14.92,27.34-2.75,3.34-5.93,6.38-8.36,9.93-7.59,11-17.91,19.22-27.78,28-10.8,9.6-22.19,18.44-33.16,27.79-11.24,9.58-19.89,21.43-27.2,34.22-4.31,7.55-8.71,15-15.43,20.73a32.71,32.71,0,0,0-3,3.15c-7.91,8.88-9.53,18.47-3.26,28.95,5.37,9,6.15,19.13,7.18,29.18a55.24,55.24,0,0,0,2.43,11.47c2.77,8.54,8.75,13.32,17.55,14.4a148.6,148.6,0,0,0,20.34,1.49,171.67,171.67,0,0,1,24.08,1c9.26,1.16,18.57-.21,27.73-1.4a157.86,157.86,0,0,1,44.91.78c12.63,2,25.39,2.74,38,4.45,11.18,1.51,21.82,4.54,31.34,10.67,13.06,8.41,26.71,15.39,41.63,20.05,17.1,5.34,29,17.52,39.38,31.53,7.74,10.43,15.06,21.19,23,31.45,6.45,8.38,12.6,16.75,17,26.36,1.72,3.79,6.11,5.7,6.92,10.08Z"/><path d="M-.11,151.46c3.91.67,6.76,3.13,9.14,6,6.94,8.37,15.83,13.47,26,17.08,14.87,5.29,28,14.06,41.37,22.18,9.88,6,20,11.59,29.65,17.93,5.21,3.41,11.1,4.83,17.54,5.12,17.06.78,34.22.56,51.1,3.7,11.51,2.15,22.1,6.35,31.52,13.56a63.07,63.07,0,0,0,20,10.79c9.39,2.86,18.49,3.4,27.87-.08,13.34-4.95,27.2-8.37,40.7-12.77,12.45-4.05,25.1-8.37,35.67-16.69,7.84-6.16,10.45-14.55,9.33-24.16a38.25,38.25,0,0,0-3.46-11.21c-3.81-8.31-2.74-17-1.53-25.54a13.31,13.31,0,0,1,6.09-9c11-7.48,15.47-18.91,18.81-31a14.91,14.91,0,0,0-1.22-10.84c-4-8.14-7.29-16.61-10.74-25a38.43,38.43,0,0,0-6-9.38A15.54,15.54,0,0,0,329.39,66c-13.36,0-24.77,3.89-32,16.15a28.34,28.34,0,0,1-3.23,4.52,13.55,13.55,0,0,1-17.38,2.92,26.16,26.16,0,0,1-9.48-8.71c-4.15-6.42-9.09-12.25-13.88-18.19a13.14,13.14,0,0,1-1.88-2.44c-3.64-7.9-9.83-12.75-17.65-16.36-4.57-2.11-8.84-3.88-14-4.08-11.22-.46-20.61-5.4-28.5-13.24a95.59,95.59,0,0,0-12.24-10.37c-6.34-4.5-13.08-5.56-20.55-4.17-10.44,1.94-20.21.22-28.55-6.68A46,46,0,0,1,117.5-12H120a47.06,47.06,0,0,0,9,13.17C136.49,8.83,146,12,156.2,9.83c13.11-2.85,22.88,2.45,32.18,10.26a66.14,66.14,0,0,1,5.73,5.63c7.32,7.85,16.57,11.35,27.06,11.69,4.7.15,8.62,2,12.86,3.73,9.5,3.88,15.48,10.77,20.73,19.27,4.85,7.84,11,14.92,16.86,22.08,7.15,8.79,16.91,9.72,23.29-.93,7.68-12.81,19.42-17.94,33.74-18,6.77,0,12.28,3,16.25,8.63A56,56,0,0,1,352.56,87a109.89,109.89,0,0,0,7.91,18.11,17.17,17.17,0,0,1,1.31,13.75,91.92,91.92,0,0,1-7.11,17.78c-2,3.63-4.28,7-7.82,9.41-12.37,8.44-12.7,21.07-9.21,33.62.6,2.18,1.65,4.23,2.41,6.36,2.42,6.75,3.26,13.55,1.08,20.58-1.83,5.9-4.77,10.78-10.07,14.33A96.5,96.5,0,0,1,314.2,230c-9.71,4-19.31,8.27-29.68,10.53s-20.55,6.14-30.61,9.8c-14.26,5.19-27.15,1.34-39.76-5.15a35.4,35.4,0,0,1-6.2-4.06c-12.61-10.26-27.3-14.93-43.22-16.66-5.33-.59-10.63-1.37-16-1.16-9.7.39-19.29-1.43-29-1.3-5.87.07-11.19-2.81-16-5.94-16.13-10.39-32.74-19.95-49.25-29.69-8.18-4.83-17-8.47-25.84-11.83-6.89-2.62-13-6-17.52-12.08-2.8-3.81-6.4-7-11.16-8.47Z"/><path d="M419.59,1080a7.55,7.55,0,0,0-2.84-6.49c-7.58-6.2-13-14.21-17.73-22.6-3.69-6.55-8.68-12-13.28-17.79a6.68,6.68,0,0,0-2.77-2.41c-6.18-1.86-8.21-7-10.08-12.29-.93-2.64-2-4.8-5.75-3.95-3.25.73-4.49-.76-4.44-4a2.53,2.53,0,0,1,.13-1.22c3.47-5.17.52-8.61-2.93-12.25-11.7-12.32-20.93-26.52-30-40.73-7.44-11.62-13.76-23.94-20-36.26-.75-1.47-1.43-3-2.17-4.45-5.51-11-14.41-16.08-26.61-15.07-4.1.34-8.18.92-12.26,1.53a33,33,0,0,0-13.09,5.25,163.34,163.34,0,0,1-39,18.35,71.07,71.07,0,0,0-25.21,14.06c-6,5.25-12.87,9.6-19.42,14.27a9.93,9.93,0,0,1-3.9,1.74c-21.84,3.82-40.72,14-58.34,26.92-5.14,3.78-10.48,7.32-15.92,10.65-11.81,7.23-25.05,9.3-38.54,9.71a58.09,58.09,0,0,0-18.14,3.18c-10.29,3.65-21.08,5.67-31.31,9.58-1.88.71-4,.74-6.05,1.09v-2.48c2-.35,4.17-.38,6.05-1.1,10.41-4,21.42-6,31.89-9.78a54.64,54.64,0,0,1,17.55-3c13.1-.28,25.94-2.3,37.39-9.24a208.2,208.2,0,0,0,17.89-12.14c15.14-11.51,32-20,50.25-24.41,12.62-3,21.33-11,30.94-18.13a104.86,104.86,0,0,1,14-9c10.81-5.63,23.06-7.57,33.65-13.75,5-2.91,10.21-5.35,15-8.57,9.92-6.65,21.32-7.73,32.64-7,10.05.61,17.8,6,22.21,15.52a354.5,354.5,0,0,0,19.08,35.35c10.19,16.67,20.34,33.53,34.41,47.4,4,3.91,6.27,7.63,2.69,12.88-.19.28-.07.79,0,1.2a1.51,1.51,0,0,0,.25.53c6.12-.13,7.11.37,9.3,6.36,1.83,5,4.19,8.91,9.33,11.52,5.37,2.73,8.61,8.27,11.8,13.22,4,6.21,8.52,12.09,12,18.71a29,29,0,0,0,8.25,9.08,19.86,19.86,0,0,1,6.9,9.92Z"/><path d="M-.11,1052.76a67.23,67.23,0,0,1,7.39.39c10.28,1.65,19.3-.54,26.23-8.68,3.69-4.33,7.63-5.57,13.53-4.72,10.92,1.57,21-2.12,29-9.61a96.43,96.43,0,0,1,41.6-23.27,5.18,5.18,0,0,0,1.76-.54c6.59-5.13,14.66-8.63,19.69-15.4,4.31-5.83,9.92-9.24,16.21-11.8a67.07,67.07,0,0,0,10-4.69c7-4.28,14.42-7.93,21.6-12a34.11,34.11,0,0,1,17.9-3.91,157.66,157.66,0,0,0,32-2.07c11.15-1.88,21.81-6,32.4-10,3.08-1.17,6.2-2.24,9.3-3.38,9.8-3.62,18.2-1,25.53,5.91a48.74,48.74,0,0,1,4.83,5.61c5.55,7.17,10.12,15,16.14,21.89,2.49,2.83,3.42,6.52,4.76,10,1.87,4.83,3.83,9.63,9.51,11.4a6.09,6.09,0,0,1,3.91,4.51c1.42,5.3,4.42,9.69,7.64,14,3,4,5.64,8.13,8.58,12.11,3.09,4.18,6.62,7.75,11.78,9.58,6.8,2.42,9.85,7.76,10.11,14.8.11,2.88-.07,5.78.11,8.65.36,5.61,3.65,9.56,9.09,11.14a19.07,19.07,0,0,0,3.62.8,13,13,0,0,1,10.64,6.49H401a7,7,0,0,0-5.36-3.75c-1.83-.3-3.66-.65-5.45-1.12-6.79-1.78-10.85-6.66-11.31-13.72-.18-2.88-.08-5.78-.1-8.66,0-5.78-2.73-10.18-8-12.14-6.38-2.39-10.86-6.61-14.33-12.14-5.24-8.35-12.47-15.46-15.61-25.12a6.52,6.52,0,0,0-3.79-3.87,14.57,14.57,0,0,1-8.05-9c-3.27-10.32-10.48-18.12-16.45-26.71-3.41-4.91-6.85-9.78-11.25-13.92-6-5.62-12.86-7.13-20.57-4.94a93.74,93.74,0,0,0-11.65,4.14c-9.12,3.94-18.7,6.61-28.21,9.07-10.74,2.78-22,3.16-33.15,2.86-9.38-.25-17.65,2.49-25.86,6.92-8.84,4.77-17.19,10.5-26.85,13.85-5.36,1.86-10.39,5-13.67,10.16a20.06,20.06,0,0,1-7.73,7,12,12,0,0,0-3.59,2.38c-4.81,5.66-11.46,7.43-18.17,9.75a92.28,92.28,0,0,0-33.36,19.6c-9.79,9.14-21,13.51-34.43,11.19-3.29-.57-5.56.68-7.5,3.12-4.71,5.93-10.92,9.24-18.3,10.65a21.21,21.21,0,0,1-8.58.25,39.17,39.17,0,0,0-9.85-.61Z"/><path d="M-.11,115.56a9.7,9.7,0,0,1,5.8,1.84c3.65,2.42,7.81,3.71,11.78,5.42C24.91,126,32,126.17,39.35,122s15.89-4,24-5.13c10-1.43,20.14-1.42,30.24-1.34,23.11.19,42.1,9.35,56.13,27.57,9.13,11.87,19.22,22.54,31.16,31.49a104,104,0,0,0,15.84,9.62c4.45,2.22,6.37,1.18,6.12-3.75a90.21,90.21,0,0,0-6.05-28.9C192.25,140,186,129.29,180.16,118.4a42,42,0,0,0-8.2-10.79A98.2,98.2,0,0,1,156,88C151.68,81,145.6,75.74,138.86,71.3A31.57,31.57,0,0,0,122,65.84c-6.18-.16-12.26-1.59-18.27-3-4.73-1.13-9.1-3.46-11.92-7.34C87,48.83,80.4,44.24,74.38,39,62.05,28.19,54.73,14.84,53.14-1.55,52.8-5,52.31-8.49,51.89-12h2.47c.94,10.46,2,20.79,7,30.46a67.53,67.53,0,0,0,17,20.93C83.58,43.79,89,47.87,93.18,53.36c3.38,4.45,8.1,6.84,13.66,7.71,5.89.93,11.67,2.41,17.72,2.55,5.69.12,10.93,2.48,15.53,5.6,5.95,4,11.7,8.46,15.83,14.58a151,151,0,0,0,17.32,21.7c8.65,8.78,14,19.92,19.37,30.76,6,12,11.11,24.41,12.33,38a43,43,0,0,1,.43,8c-.51,5.28-3.19,6.93-8,4.71A96.16,96.16,0,0,1,173,171.37c-8.69-7.87-17.16-16-24-25.73-8.86-12.64-21.37-20.28-35.87-25a59.08,59.08,0,0,0-18.22-2.77,292,292,0,0,0-42.52,2.73,40.35,40.35,0,0,0-14.68,4.6c-5.61,3.2-11.34,3.31-17.28,1.13-5.23-1.92-10.51-3.69-15.34-6.53A10.25,10.25,0,0,0-.11,118Z"/><path d="M1722,1080a77.16,77.16,0,0,0-15.08-30.18c-5.72-7.21-15.77-9.08-24.2-5.23a49.52,49.52,0,0,0-14.89,9.87c-5.68,5.76-12.29,8.9-20.27,9.18a39.46,39.46,0,0,0-12.09,2.38c-6.27,2.28-12.87,2.76-19.4,3.58a10.68,10.68,0,0,1-9.91-4,116.51,116.51,0,0,0-9.33-9.9,19,19,0,0,1-6-13.81c-.46-14.5-5.61-27.84-10.67-41.1-3.45-9-14-13.37-23.12-10-7.25,2.72-14.88,3.19-22.32,4.6-7,1.32-13.94-.46-20.64-2.81-3.31-1.15-6.67-2.14-10-3.24a9.91,9.91,0,0,0-8.34,1c-8.06,4.54-12.28,17.73-7.26,25.54,5.81,9,7.1,19.22,9.48,29.21,2.18,9.09.53,17.57-3.49,25.8-1.45,3-2.67,6-4,9H1488a74.36,74.36,0,0,1,3.15-7.38c5.62-10.1,6.42-20.58,3.55-31.69-2.21-8.57-4.11-17-8.89-24.83-4.57-7.47-1-22.74,9.06-28a13.27,13.27,0,0,1,10.15-1c6,1.65,11.57,4.32,17.73,5.36a40.92,40.92,0,0,0,17.14-.34c6.35-1.62,12.87-2.26,19.21-4.29,8.2-2.64,20.12,3.14,23.12,11.29,5.1,13.89,10.48,27.8,11.06,42.89a16.13,16.13,0,0,0,5.45,12,58.54,58.54,0,0,1,7.9,8.66c2.85,3.81,6.52,5,11.38,4.38a109.19,109.19,0,0,0,21-4.68c4.37-1.43,9-1.08,13.42-2a24.67,24.67,0,0,0,11.85-6.19c5.55-4.93,11.44-9.49,18.42-12.21,8.83-3.44,17.08-2.31,23.91,4.59,9.23,9.31,14.33,20.93,17.81,33.37Z"/><path d="M335.4,1080c1.28-1.87,2.43-3.84,3.86-5.58,5-6,4.86-12.6,1.62-19.1-3.57-7.18-7.72-14.07-11.7-21-2-3.56-5-5.57-9.06-6.86-9-2.89-17.8-3.77-27.29-1.45-7.5,1.83-15.53,1.24-23.2,3.08-8.8,2.11-17.71,3.78-26.59,5.56a46.09,46.09,0,0,1-6.72.86c-8.69.47-17.27-1-25.86-1.79-7-.67-13.32-4.23-19.56-7.39-7.74-3.91-15.69-7.29-23.69-10.58-5.29-2.18-10.59-3.39-16.07-.46a9.05,9.05,0,0,1-6,.76,11.29,11.29,0,0,0-9.79,2.82c-5,4.47-11.11,7-17,10-2.95,1.47-5.85,3-8.83,4.45a45.68,45.68,0,0,0-15.75,11.71,45.74,45.74,0,0,1-21.42,14c-4.73,1.52-9.14,3.6-12.64,7.41a15.39,15.39,0,0,1-11,5c-7.17.31-13,3.51-17.87,8.61H24.65c4.53-2.84,9-5.78,13.62-8.48a21.75,21.75,0,0,1,10.1-2.56,13.27,13.27,0,0,0,9.35-4.13,32.67,32.67,0,0,1,13.67-8.11c8.36-2.73,15.79-6.84,21.2-14.14,3.11-4.2,7.45-7.08,12.09-9.43,5.69-2.88,11.39-5.76,17.13-8.54a56,56,0,0,0,11.09-6.68c3.82-3.1,8-5,13.07-4.29a10.57,10.57,0,0,0,6-1.16c4.89-2.18,9.66-1.53,14.39.38,7.83,3.17,15.75,6.17,23.16,10.24,17.93,9.88,37,11.4,56.85,8.46,8.17-1.21,16.11-3.44,24.17-5.11,6.06-1.25,12.09-2.46,18.34-2.31a19.35,19.35,0,0,0,6.06-1c7-2.14,13.81-1.55,20.69.46,12.74,3.73,12.74,3.7,19.05,15.38,2.25,4.17,4.4,8.4,6.85,12.44,4.81,8,6.45,17.11-1.79,26.08a30,30,0,0,0-1.85,2.47Z"/><path d="M1583.36-12a187.85,187.85,0,0,1,27.72,16.19,112.18,112.18,0,0,0,39.56,17c16,3.53,30,11.17,43.17,20.64,5.39,3.88,11,7.26,17.64,8.61,5.09,1,9.61,3.78,14.08,6.29,12.51,7,26.41,9.08,40.16,11.7,1.21.23,2.48.22,3.67.5,12.33,3,24.84,3.28,37.46,3.46a79.51,79.51,0,0,0,37.53-8.83,177.61,177.61,0,0,1,24-9.87c5-1.66,8.84-.66,12.26,3.07,1.53,1.67,3.1,3.32,4.7,4.92a39.45,39.45,0,0,0,19.09,10.89c5.22,1.24,10.48,2.26,15.72,3.38v2.47c-8.4-2-17.11-2.75-24.95-6.84-5.74-3-10.89-6.55-14.85-11.83-3.62-4.84-5.93-5.27-11.83-3.54a138,138,0,0,0-24,9.83c-11.56,5.94-23.79,8.55-36.89,8.86-19.6.47-38.49-3.38-57.53-7-11.57-2.21-21.83-7.29-32.19-12.36a29.92,29.92,0,0,0-6.87-2.73c-7.73-1.56-14-5.77-20.26-10.22-8.41-6-17.18-11.43-27-14.9-4.85-1.73-9.84-3.09-14.83-4.37-14.29-3.68-27.81-9-39.93-17.67-4.86-3.46-10-6.53-15.09-9.68a44.36,44.36,0,0,0-11.87-5.18c-2.19-.6-4.44-1-6.13-2.73Z"/><path d="M164.55,1080a66.87,66.87,0,0,0-20.67-5.22c-13.51-1-26.95,1.31-40.42.23-2-.16-4.17.19-6.12-.27-5.73-1.35-10,.5-13.26,5.26H77.89c3.21-1.82,6.52-3.43,9.28-6,2.19-2,5-2.36,8.06-2.12a235.19,235.19,0,0,0,37.63.11,57,57,0,0,1,20.18,1.63c8.15,2.3,16.22,4.74,24.71,5.4a11.85,11.85,0,0,1,2.89,1Z"/><path d="M-.11,69.75a5.14,5.14,0,0,0,3.4-4.09c1-5,2.68-10.13,2.62-15.18C5.79,40.48,9.52,32,14.44,23.8,21.14,12.58,25.19.23,29.6-12h2.48C27.65,1,23.08,14,16,25.81c-4.41,7.33-7.45,14.89-7.54,23.7C8.37,54.77,6.86,60,5.87,65.27a11.81,11.81,0,0,1-6,8.19Z"/><path d="M1920.11,875.72c-6.36,7.41-11.72,15.41-14.69,24.84-2.35,7.48-2,14.75,2,21.49,5.12,8.5,9.72,17.2,12.66,26.72V955c-1.77-2.14-2.26-4.84-3-7.38a75.46,75.46,0,0,0-9.58-20.65c-7.44-11-7.46-22.18-1.74-33.89,3.92-8,9.33-15,14.33-22.27Z"/><path d="M1920.11,1010.67c-2,9.43-4.41,18.8-6,28.31a246.24,246.24,0,0,1-6.67,28.85,38.62,38.62,0,0,1-5.91,12.17h-2.48c6.44-9.41,8.67-20.37,10.74-31.2,2.26-11.88,5.1-23.63,7.23-35.53,1-5.41.77-11.06,3.08-16.22Z"/><path d="M1842.11-12c3,3.43,6.81,5.88,10.66,8.18,4.14,2.47,8.75,2.29,13.12.87a44,44,0,0,0,15.84-9h3.72A47.14,47.14,0,0,1,1863.2.17a13.25,13.25,0,0,1-9-.75c-5.81-3-11.36-6.41-15.75-11.38Z"/><path d="M564.32,838.9a27.86,27.86,0,0,1,.92-8,311.45,311.45,0,0,0,9.68-41.55c1.08-6.53,4.3-11.8,8.75-16.71,6.85-7.57,15-12.29,24.72-15.55,13.94-4.69,23.43-14.06,25.77-29.52,1.74-11.46,8.77-19.81,17.61-26.7a15.85,15.85,0,0,1,14.09-2.76,156.72,156.72,0,0,1,20.7,6.23c13,5.21,26.71,8.6,40.43,11.36,9.48,1.9,18.72,4.31,26.45,9.84,10.67,7.64,22.65,9.18,35.06,10.34,11.26,1,22.66,1.41,33.62,4.68a50.16,50.16,0,0,1,6.37,2.35,10.52,10.52,0,0,1,6.23,7.92c1.29,6.23,1.49,12.28-1.69,18.06a19.31,19.31,0,0,0-1.25,2.83c-3.25,9.1-1.08,13,8.42,14.93a53.58,53.58,0,0,0,7.33,1.1c9.86.63,18.29,4.65,26,10.6,6.59,5.11,6.64,12.36,4.91,19.2-1.87,7.36-2.15,14.65-1.95,22.07a129.74,129.74,0,0,1-2.75,30.11c-3.25,15.41-11.06,27.45-27,32.59-4.12,1.32-8.07,3.16-12.2,4.47A66.85,66.85,0,0,0,819,914.48a30,30,0,0,0-8.86,8.5A99.16,99.16,0,0,1,771,957.16a244.77,244.77,0,0,1-25.49,11.1c-4.87,1.71-9,1-11.93-3.36-5.46-8.14-14.61-12.73-20-20.93-1.26-1.93-3.46-2.86-5.61-3.7-2.89-1.11-5.78-2.22-8.62-3.44-6.34-2.73-11.93-6.4-16.12-12.1a57.1,57.1,0,0,0-9.78-10.25c-9-7.38-14.39-16.63-15.18-28.62-.45-6.78-3.15-12.73-10.62-15.24-2.66-.89-4.9-3-7.35-4.53a25.06,25.06,0,0,0-17.18-3.67c-8.16,1.14-16.38,1.68-24.54,3-13.31,2.08-26.85-5.44-32.27-17A20.93,20.93,0,0,1,564.32,838.9Zm268.79-80.84c-.05-9.51-2.48-12.77-11.06-15.09a64.51,64.51,0,0,0-9-2.05c-11.67-1.39-23.34-2.71-35-3.81a45.92,45.92,0,0,1-20.92-6.89c-7.84-5-15.92-9.67-25.32-11.09a127,127,0,0,1-18.64-4.42C704.42,712,695.27,711,687,707.17c-6.83-3.11-14-4.92-21.21-6.68a14.83,14.83,0,0,0-13.91,3.25c-7.71,6.77-14.26,14.33-15.57,25.16A24.8,24.8,0,0,1,633,739.47c-6.15,9.65-13.88,17.36-25.31,20.54a43.71,43.71,0,0,0-7,2.41c-11.72,5.6-20.82,14-23.33,27.07-2.68,14-5.41,27.93-9.7,41.52-4.15,13.13,2.44,21.52,9.34,26.51,6.23,4.51,13.21,6.84,21,5.55,7.53-1.24,15.14-1.78,22.66-2.87A31.64,31.64,0,0,1,643,865c2.26,1.43,4.44,3.24,6.93,4,3.75,1.14,5.74,3.64,7.58,6.77a24.06,24.06,0,0,1,3.36,11.14c.44,9.2,4.45,16.54,11,22.77,4.64,4.4,9.59,8.54,13.36,13.74,3.91,5.4,9.13,8.85,15.13,11.36,2.47,1,5,2.06,7.48,3a18.28,18.28,0,0,1,9.23,6.92c1.64,2.35,3.21,4.87,5.73,6.43a42.53,42.53,0,0,1,10.76,10.06c5.07,6.39,6.8,6.72,14.28,3.62C753,962.64,758,960,763.13,958a97.24,97.24,0,0,0,44.37-35.23,41.79,41.79,0,0,1,14.65-13c7.48-4.06,15.49-6.81,23.49-9.52,14.6-4.94,22.5-15.6,25.5-30.08A134.25,134.25,0,0,0,874,840.62c-.15-7.83-.08-15.53,2-23.3,1.9-7.19,1.3-14.41-6.22-19.06-6.94-4.29-14.13-7.65-22.44-8.09a44.14,44.14,0,0,1-12.7-2.57c-5.34-1.92-6.67-4.08-6.46-9.81a23.52,23.52,0,0,1,2.74-10.07A18.53,18.53,0,0,0,833.11,758.06Z"/></svg>