<svg xmlns="http://www.w3.org/2000/svg" viewBox="0 0 1920 1080"><defs><style>.a{fill:#3587a4;}</style></defs><path class="a" d="M1920,574.87a335.09,335.09,0,0,1-42,27.18c-4,2.19-7.84,4.6-11.91,6.58-8.14,4-15,2.83-21.49-3.52a36.37,36.37,0,0,0-10.56-7.37c-10.53-4.76-17-12.69-18.45-24.46a21.45,21.45,0,0,0-2.09-7.72c-4.06-7.54-11.15-11.22-20.08-10.25a86.54,86.54,0,0,0-9.81,1.27c-5.5,1.26-9.61-.94-13.39-4.53-2.91-2.77-4.68-6.24-6.32-9.82-4.79-10.45-11.11-19.6-20.71-26.4-9-6.38-15.49-14.63-17.2-26.05a51.66,51.66,0,0,0-4.14-12.94c-2-4.58-5.35-6.43-10.32-6a23.35,23.35,0,0,0-12.4,5.07c-4.45,3.33-8.55,7.11-13.36,10-5,3-10.15,3.71-16,3.08a165.66,165.66,0,0,0-37.64,0,70.55,70.55,0,0,1-32.3-3.35c-6.8-2.4-13.67-4.66-20.4-7.25-10.26-3.94-17.29-10.68-19.33-22.08-1.41-7.88-2.73-15.82-5.67-23.39a19.7,19.7,0,0,0-10.62-11.45,218.66,218.66,0,0,0-34.28-12.32c-8.53-2.24-17.39-3.31-25.65-6.68-11.55-4.72-19.81-12.8-26.19-23.46-8.36-14-18-27-30.15-38.16-5.47-5-10.8-10-17-14.19-9.51-6.49-19.76-12-30.72-14.16-13.77-2.69-27.06-7.23-40.89-9.46a70.15,70.15,0,0,0-13.58-.54c-13.28.47-25-4.26-36.52-10.15-2.38-1.22-4.64-2.81-7.15-3.65-8.29-2.74-15-7.68-20.65-14.17-2.58-2.94-5.61-5.49-8.2-8.42-6-6.74-13.68-9.88-22.34-10.66-13.35-1.2-25.85-4.58-37.42-11.63-9.1-5.54-19.38-5.32-29.5-4-15.17,2-29.59.43-43.13-7.14a41.54,41.54,0,0,0-28-5,104.16,104.16,0,0,1-38.64-1.36,205,205,0,0,1-30.32-8.48,45.57,45.57,0,0,0-17.54-3.34c-4,.13-7.7-1.09-11.33-2.69-5.67-2.49-11.37-4.89-17.08-7.28a39.36,39.36,0,0,0-16.24-3.44c-8.43.23-16.81-1.78-25.27-.41a14.32,14.32,0,0,1-5.49-.69c-9.41-2.27-19-3.61-28.42-6.06-9.68-2.53-19.61-2.08-29.51-1.09-7.78.78-15.58,1.61-23.39,1.87a74.14,74.14,0,0,0-16.52,2.08c-10.78,2.85-21.53,2.65-32.45,1-9.62-1.44-19.37-1-29-.35-6,.39-11.24,3.87-16.36,7a64.24,64.24,0,0,0-6.7,4.44c-6,4.78-12.85,5.06-20,3.87a52.31,52.31,0,0,1-5.47-1.06,67.69,67.69,0,0,0-30.56-1.28,43,43,0,0,1-19-1.28c-7.94-2.18-16-4.3-24.19-5a39.65,39.65,0,0,0-30.9,10c-3.5,3.13-4.34,7.77-3.94,12,.91,9.4-3.37,14.63-11.73,17.86-10.67,4.13-18.89,11.44-25.79,20.54a60.77,60.77,0,0,1-12.34,12.1c-4,3-7.34,6.64-10.81,10.16a11.18,11.18,0,0,0-2.82,12,50.51,50.51,0,0,0,9.4,17.28c4.72,5.72,9.59,11.32,14.37,17a40,40,0,0,1,9.77,26.72,111.92,111.92,0,0,1-.86,16c-1.25,8.29.47,15.68,6.39,22.32,7.42,8.34,14.56,16.84,24.11,22.89a95.17,95.17,0,0,0,17.67,8.87,154.43,154.43,0,0,1,27.62,13.78c11.21,6.94,22.63,13.37,35.24,17.81,11.67,4.1,22.35,10.67,32.41,17.9,8.86,6.36,17.31,13.31,26.29,19.56A38.51,38.51,0,0,1,765.76,513c5.15,10.18,13.57,16.91,23.17,22.48a77.28,77.28,0,0,1,17.26,12.93c10.46,10.83,21.95,20.57,33,30.73a43.2,43.2,0,0,1,7.18,8.48,27.34,27.34,0,0,0,15,11.33A116.1,116.1,0,0,0,888,604.54c11.66,1,18.92,8.55,25,17.36,2.82,4.09,2,8.7-1.45,12.53-2.78,3.05-5.53,6.12-8.36,9.12-6.87,7.27-12.63,15.15-15.52,25-1.2,4.08-4.35,6.86-8.2,8.85a47.49,47.49,0,0,1-12.81,4.48,62.41,62.41,0,0,0-25.48,10.64c-13.66,9.93-28.12,9.3-42.81,3-10.82-4.65-21.59-9.27-33.2-11.65-9.69-2-19.09-5.24-28.87-6.92-6.54-1.13-11.88-4.55-16.52-9.15-3.81-3.77-7.44-7.74-11.34-11.41-8.19-7.68-17.73-11-29-8.57a191.17,191.17,0,0,0-23.11,6.9,24.82,24.82,0,0,0-9,5.4A263.72,263.72,0,0,1,616.7,685c-6,4.32-10.23,10.22-13.53,16.65a168.59,168.59,0,0,1-23.82,34.55,41.48,41.48,0,0,0-6.43,9.8,66.44,66.44,0,0,1-9.44,14.48c-8,9.44-13.35,20.3-18.08,31.54-2.56,6.09-5.12,12.16-8.2,18-4.61,8.78-6.34,18.29-6.78,28a26.18,26.18,0,0,0,3.12,13.13c3.15,6.07,3,12.26,1.2,18.63a70.1,70.1,0,0,0-2.39,10.22c-.84,6.93,2,9.69,9,8.75,5.3-.71,10.58-1.57,15.9-2.23,11.12-1.37,22.25-1,33.37-.92,7.21,0,14.42-.13,21.61,1a85.66,85.66,0,0,1,32.38,11.59,46.09,46.09,0,0,0,5.3,3.17,10.68,10.68,0,0,1,5.73,6.16,22.6,22.6,0,0,0,9.83,11.56c4.15,2.42,7.53,5.89,10.67,9.35,7,7.69,15.42,13.61,22.86,20.69a163.51,163.51,0,0,1,31.91,41.52c3.15,5.91,8.37,9.35,13.37,13.35,7.27,5.82,14.73,5.15,22.65,2.44a79.37,79.37,0,0,0,20.52-10c7.57-5.35,15.37-10.39,23-15.7a51.83,51.83,0,0,0,14.84-15.56c5.34-8.76,12.71-14.66,22.36-18.59,11.24-4.57,22.07-10.21,33.14-15.25,9.6-4.37,16.73-12.11,23.28-20.06a350.6,350.6,0,0,1,29.21-31.09c8.65-8.23,13.66-17.94,14.55-29.8a25.39,25.39,0,0,0,0-6.16c-2.36-13.58.39-26.75,3.49-39.77,2.26-9.53,8.72-12.35,18-9.1A32.87,32.87,0,0,1,982.8,805c8.18,9.23,16.45,18.38,22.84,29.13a69.05,69.05,0,0,1,9.36,29.79c.53,5.94,1.37,11.85,1.44,17.86.06,5.18,1.7,10.18,3.43,15,5,14,11.3,27.18,20.71,39.13,8.89,11.3,17.51,22.92,25.54,34.92a32.5,32.5,0,0,1,4.88,11.26c1.14,5.24,2.56,10.41,3.78,15.63,3,12.85,9.74,23.65,19,32.71,7.52,7.33,11.2,16.14,12.4,26.27,1,8.74-4,15-12.73,15.63a108.42,108.42,0,0,1-13.61.11,29,29,0,0,0-21.58,7.57h-3.71c7.61-7.06,16.37-10.9,27-10a81.07,81.07,0,0,0,11.13,0c7.63-.43,12-5.7,11-13.33-1.21-9.67-4.73-18.19-11.79-25.29-5.8-5.82-11.33-12-14.64-19.75-2.76-6.47-5.37-13-6.5-19.95A58.8,58.8,0,0,0,1054.41,959a40.24,40.24,0,0,1-3.7-4.94c-5.52-7.71-10.52-15.8-16.65-23.07a60.72,60.72,0,0,1-9.12-15.37c-4-9.29-8.05-18.53-10.21-28.49-1.54-7.1-1.35-14.36-1.93-21.52-1.33-16.5-7.63-30.62-18.17-43.09-6.37-7.54-12-15.75-20.26-21.56a23.46,23.46,0,0,0-7.12-3.61c-7.48-2.13-11.4-.2-13.6,7.36a90.23,90.23,0,0,0-2.76,13.94,134.46,134.46,0,0,0-.77,27.08c1,13.3-4,25.07-13.52,34.65-4.23,4.24-8.4,8.53-12.66,12.73-8.06,8-15.5,16.55-22.86,25.17a62.92,62.92,0,0,1-21.46,16.42c-11.59,5.39-23.27,10.6-34.92,15.85a34.38,34.38,0,0,0-15.31,13.12,73.62,73.62,0,0,1-27.2,25.55,104,104,0,0,0-10.16,7c-10.52,7.62-22,12.94-34.94,14.9a9.89,9.89,0,0,1-6.58-.87c-9.31-5.09-17.92-10.65-23-20.7-8.06-15.79-19.37-29.32-32.69-40.85-11.38-9.84-21.48-21.08-33.59-30.1a21.49,21.49,0,0,1-7.57-9.62,9.1,9.1,0,0,0-3.28-4.39c-14.19-10-29.84-15.78-47.25-16.35-8.45-.27-16.92-.08-25.38-.23a177.65,177.65,0,0,0-34.45,2.91,16.26,16.26,0,0,1-5.52.36c-7-1.06-8.66-3.15-8-10.28a53.58,53.58,0,0,1,2.43-10.85A25.63,25.63,0,0,0,531,850.93c-4.5-9.5-2.89-19.36-.7-29.11a31.76,31.76,0,0,1,2.54-7.62c7-13.58,11.38-28.44,19.46-41.42C561,758.83,570.21,745.17,580,732c7.78-10.43,15.66-20.69,21.56-32.35a49.54,49.54,0,0,1,18.14-19.91c9.42-5.83,17.14-13.53,25.42-20.61a35.53,35.53,0,0,1,10.37-6.6,180,180,0,0,1,23.06-7.07c12.36-2.91,22.77,1.17,31.84,9.33,4.14,3.71,7.93,7.82,11.76,11.86a27.58,27.58,0,0,0,14.38,7.94c12.87,2.95,25.68,6.13,38.5,9.28,7.66,1.88,14.72,5.34,21.89,8.51a54.61,54.61,0,0,0,17.15,4.92c9.37.88,18.06-.83,25.75-6.56a64.39,64.39,0,0,1,27.7-11.62,34.82,34.82,0,0,0,9.94-3.35c4-2.08,7.31-5,8.51-9.37,2.82-10.39,9.66-18.07,16.66-25.68,2.23-2.42,4.58-4.75,6.75-7.23,3.29-3.78,3.42-7.93.66-12-5.33-7.76-12.11-13.46-21.94-14.51a125.8,125.8,0,0,1-27.19-5.7,30.72,30.72,0,0,1-16.11-12,59.07,59.07,0,0,0-14-14.7c-7.66-5.69-14.18-12.63-20.65-19.54s-14.16-12.5-22.21-17.55c-4-2.52-8-5.13-11.75-8a43.74,43.74,0,0,1-12.15-14.67,44.81,44.81,0,0,0-15-16.21c-6.88-4.6-13.28-9.77-19.93-14.63-13-9.53-26.83-17.65-42.21-23-10.79-3.73-20.36-10-29.94-16a146.75,146.75,0,0,0-24.84-12.45c-9.63-3.78-19-8.14-27-14.9-5.68-4.81-11.07-9.89-15.33-16.05a16.92,16.92,0,0,0-2.19-3c-7.4-6.8-8-15.41-6.64-24.54a82.23,82.23,0,0,0,.42-19.13c-.76-9.21-5.35-16.72-11.22-23.64-6.13-7.22-12.6-14.18-17.7-22.24a38.6,38.6,0,0,1-4.38-10.18c-1.6-5.55-.07-10.2,3.72-14.22a55.39,55.39,0,0,1,7.22-6.74c7.38-5.44,13.48-12.08,19.1-19.23a49,49,0,0,1,16.61-13.62c3.69-1.86,7.4-3.65,11.06-5.56s5.69-4.69,5.54-8.91c0-.62,0-1.24,0-1.85-.7-11.45,5-18.73,15.13-23,8.92-3.76,18-5.59,27.71-3.16,7.79,2,15.71,3.42,23.58,5a41.08,41.08,0,0,0,15.39.22c8.65-1.53,17.16-1.88,25.69.57,2.37.68,4.87.89,7.28,1.46,8.24,2,15.93,1.27,22.81-4.21a55.81,55.81,0,0,1,5.66-3.79c7.68-4.7,15.68-7.69,25.06-7.4,11.14.35,22.22.67,33.27,2.28,5.38.79,10.68-.64,15.89-1.71a125.71,125.71,0,0,1,22.64-2.9c7.39-.18,14.75-1.42,22.13-2,10.1-.77,20.14-.87,30.13,1.57,9.6,2.36,19.32,4.23,29,6.27a7.5,7.5,0,0,0,3.07.23c7.41-1.62,14.76.55,22.17.25,8.38-.33,16.34,1.85,24,5.21,4.15,1.83,8.32,3.61,12.48,5.45a31.32,31.32,0,0,0,13.14,3c6-.06,11.87,1.6,17.43,3.82,16.27,6.47,33.3,9.44,50.61,10.63a70,70,0,0,0,17.82-1.48,37.09,37.09,0,0,1,26.23,4.62c13.72,7.9,28.25,9.64,43.62,7.6,10.81-1.43,21.49-1.12,31.23,4.65a74.58,74.58,0,0,0,33.87,10.7c13.48.82,23.86,7.37,31.93,17.78a45.81,45.81,0,0,0,21,15.65c7.54,2.75,14.28,7.38,21.87,10.16,6.07,2.23,12.24,4,18.7,3.61,14.29-.84,27.84,2.65,41.3,6.69,3.78,1.14,7.5,2.24,11.49,2.2a12.47,12.47,0,0,1,4.26.62c10,3.69,20.28,7,29.3,13a147.41,147.41,0,0,1,38.21,36.39c5.43,7.52,10.75,15,15.62,22.95,7.44,12.11,18.71,18.35,32.6,21.28,14.48,3.06,28.92,6.71,42.56,12.76a25.57,25.57,0,0,0,3.36,1.58c12.14,3.31,16.39,12.89,18.89,23.79a166.84,166.84,0,0,1,3.26,16.37c1.11,8.66,6.93,13.81,13.88,16.87a181.28,181.28,0,0,0,35.73,12c6.26,1.31,12.74.84,19.11.14a175.93,175.93,0,0,1,38.86,0c5.38.6,10.12-.13,14.73-3.09,4.89-3.13,9.3-6.84,13.87-10.36a23.69,23.69,0,0,1,11.9-4.74c5.63-.7,9.6,1.61,12.29,6.39a33,33,0,0,1,2.3,5.06,44.94,44.94,0,0,1,2.51,8.27c1.68,11.62,8,20,17.43,26.54,9.85,6.79,15.89,16.57,20.87,27.12a43.17,43.17,0,0,0,3.87,7c3,4.2,7.07,5.84,12.32,5.5,6.12-.4,12.09-2.37,18.41-.92,8.63,2,14.54,7.51,16.43,16.3.74,3.42,1.38,6.87,2.3,10.25a19.31,19.31,0,0,0,9.6,12.31c7,3.93,14.07,7.63,19.86,13.51,3.84,3.89,9.19,3,14.08,1.66a21.7,21.7,0,0,0,5-2.33c17.68-10.22,35.32-20.49,51.77-32.64Z"/><path class="a" d="M1920,458.5a29,29,0,0,0-12.74,1.92,103,103,0,0,1-23.35,5.86c-14.5,1.71-26.13-2.61-34.79-14.9-9.61-13.63-19.75-26.89-29.67-40.3-2.15-2.91-5.16-4.72-8.32-6.27a116,116,0,0,0-29.82-10c-10.82-2-21.14-5.66-31.44-9.24-11.83-4.12-23.79-7-36.32-6.15-11.27.78-20.83-3.34-29.07-10.16-11.91-9.86-24-19.41-36.69-28.26-6.48-4.52-12.32-9.5-14.72-17.65-1.19-4-3.69-5.29-7.7-4.55-4.22.77-8.51.92-12.68,2.49-6.91,2.59-13.9.35-20.61-1.45a108.54,108.54,0,0,0-37.91-3.18c-9.1.79-16.48,4.19-23.37,9.94-11.66,9.72-23,6.86-33.55-4.65-5.86-6.39-10.39-13.86-16.58-20a34.22,34.22,0,0,0-10-7c-9-4.1-17-10.15-25.47-15.17-2.84-1.68-5.4-3.95-8.4-5.21a59.06,59.06,0,0,1-21.27-15.64c-8.2-9.25-18.7-15.06-29.27-20.36a119.06,119.06,0,0,0-26.69-9.59,107.89,107.89,0,0,1-29.28-11.52,41.23,41.23,0,0,0-21.86-5.43c-17.35.38-33-5.15-48.16-13.58-14.22-7.93-29.7-12.28-46.31-10.78a35.57,35.57,0,0,1-23.5-5.86c-2.58-1.71-5.16-3.43-7.7-5.19a77.7,77.7,0,0,0-33-13.24c-3.66-.55-7.22-1.71-10.84-2.53a520.67,520.67,0,0,1-58.3-16.41c-8.17-2.9-16.88-3.77-25.43-5.13-11.83-1.89-22.63-6.23-31.65-14.37a23.78,23.78,0,0,0-12.69-5.93c-5.3-.81-10.58-1.78-15.81-3-8.34-1.92-15.85-5.77-22.94-10.51-2.4-1.61-4.81-3.19-7.21-4.8-6.6-4.44-13.71-5.19-20.46-1.15-8,4.82-16.9,5.81-25.63,5.73-12.93-.12-25.42,2-38,4.45-7.5,1.46-15,2.65-22.4,4.72-4.22,1.19-8.58,1.14-12.87,1.6-7.17.76-14.32,2.54-21.42,2.61a170.92,170.92,0,0,1-22.82-1.06,90.77,90.77,0,0,0-14.8-.88A53.81,53.81,0,0,1,767,114.15c-11.62-4-23.13-3.3-34.68-.29-15.49,4-31.09,3.2-46.69,1.23-6.79-.86-13.14-3.56-19.36-6.33-10.38-4.62-21.33-6.49-32.52-6.65A92.44,92.44,0,0,1,604.63,97,46.35,46.35,0,0,0,587,94.43c-4.73.23-9.5-.18-14.23.09-9,.52-17.37,2.63-24.49,8.83a111.46,111.46,0,0,1-24.86,16.06c-5.37,2.6-10.48,5.75-15.66,8.73a48.48,48.48,0,0,1-18,6.08,198.35,198.35,0,0,0-20.6,4.06c-3.34.81-5.5,3.71-7.1,6.59a57.11,57.11,0,0,1-21.86,22.18,35.26,35.26,0,0,0-9.19,8.23c-8.73,10.41-19.09,19.45-26.36,31.09-2,3.15-4.33,6-6.2,9.24-3.81,6.51-2.45,13.63-1.91,20.57.33,4.2,2.31,7.85,4.86,11.21,10.05,13.25,23.17,21.39,39.63,24.05a91.7,91.7,0,0,1,13.3,2.81c7,2.21,10.35,7.16,10.84,14.23a89.92,89.92,0,0,1,.17,10.51c-.3,6.34,2.73,10.62,7.95,13.62,2.5,1.43,5.17,2.56,7.71,3.94,6.39,3.47,10.45,8.79,11.43,16a172.65,172.65,0,0,1,1.79,33.81A275.65,275.65,0,0,1,490.47,397c-2,11.53,1.29,21.59,9.61,30,7,7,14.1,13.89,20.51,21.47A29.41,29.41,0,0,0,533.31,457a42.5,42.5,0,0,1,10.37,5.46c5.74,4.11,9.85,9.31,11.25,16.42.91,4.65,2.36,9.23,2.91,13.92a32.59,32.59,0,0,0,6.44,15.84,72,72,0,0,1,6.46,10.49c3.42,6.82,9.93,10.89,15.44,15.79a139.27,139.27,0,0,0,15.9,11.73,80,80,0,0,1,16.14,13.41,17.51,17.51,0,0,0,14.36,6c15-.6,25.89,6.72,34.86,17.89a62.25,62.25,0,0,1,8,12.41c2,4.12,1.27,7.5-1.68,10.76a35.38,35.38,0,0,1-10.21,8c-16.42,8.31-31.14,19.35-46.83,28.84-6.26,3.78-12.24,7.81-16.66,13.6-8.49,11.15-16.92,22.42-23.3,35-4,7.79-9.15,14.58-14.49,21.44-9.24,11.84-18.57,23.64-25.53,37.14a362.69,362.69,0,0,1-23.13,38.74,60.48,60.48,0,0,0-4.22,7.55c-4,8.15-8.3,16.13-13,23.9A41,41,0,0,1,485.6,833c-3.12,2.34-6.38,4.51-8.85,7.66-6.48,8.24-7.71,17.63-6.07,27.55,1.38,8.33,3.33,16.52,3.68,25.05.37,8.94,5,16.06,12.06,21.43,4.26,3.23,9.45,4,14.63,4.33,7,.48,14-.8,20.95,1.06a3.32,3.32,0,0,0,2.41-.23c4.51-2.9,9.63-1.67,14.48-2.32,2.7-.37,5.31-.64,7.86.63,2,1,4,.53,6,.17,8.76-1.53,17.52-2.52,26.41-.62,9.77,2.08,19.73,1.33,29.61,1.22a53.08,53.08,0,0,1,30,8.24,220.35,220.35,0,0,0,19.92,11.26c4.47,2.24,9,4.2,14.09,4.22,3.09,0,5.17,1.43,5.91,4.42,1.06,4.3,3.85,6.61,8,7.68,3.45.89,5.67,3.31,7.06,6.46a24,24,0,0,0,8,10,13.2,13.2,0,0,1,5.16,7.53c1.84,7.33,5.45,13.68,9.68,19.88,3.72,5.45,5.49,12,8.31,17.94,6.56,13.85,17.18,23.41,31.23,29.28,2.38,1,4.79.61,7.29.26,15.73-2.23,29-10.24,42.5-17.72,9.61-5.31,18.14-12.18,27.6-17.68a119.46,119.46,0,0,1,36.11-14.19c8.4-1.73,16,.12,23.05,4.57,10.22,6.48,11.36,16.87,2.85,25.55a47,47,0,0,1-9,7.53c-8.86,5.3-15.68,12.52-21.75,20.73-6.62,9-15.21,16.25-21.94,25.15h-2.47c3.79-6.75,9.8-11.66,14.72-17.47s10.05-11.47,14.59-17.6a32.65,32.65,0,0,1,9.63-8.54,70,70,0,0,0,15.28-12.48c6.28-6.85,5.42-14.87-2.13-20.19a28.93,28.93,0,0,0-24.16-4.62A122,122,0,0,0,826.27,1018a326.76,326.76,0,0,1-41.64,24.32,41.53,41.53,0,0,1-12.9,4.1,11.05,11.05,0,0,0-3,.53c-10.25,4.71-18.18-.28-26.15-5.91-11.95-8.43-19.45-20-24.2-33.53a45.44,45.44,0,0,0-6.44-11.93,37.87,37.87,0,0,1-6.49-13.94c-.92-4-2.77-7.37-6.19-9.65a18.39,18.39,0,0,1-6.85-8.55c-1.41-3.42-3.53-5.91-7.33-6.9a11.54,11.54,0,0,1-8-7.17c-.82-2-1.74-3.89-4.16-4.09-11.17-.93-19.92-7.51-29.31-12.54-3.09-1.66-6-3.6-9.07-5.34a44.65,44.65,0,0,0-21.84-5.95c-4.33-.07-8.66-.09-13,0-6.82.09-13.63.15-20.34-1.26-8.87-1.86-17.64-1.15-26.38.77a11.69,11.69,0,0,1-6.07-.13c-6.7-2-13.39-1-20,.67-2,.52-3.86,1.52-6,.93-4.67-1.33-9.42-.9-14.15-.86a54.8,54.8,0,0,1-11.7-.89c-12.61-2.64-19.91-10.83-22.2-22.92-2-10.49-3.23-21.15-4.91-31.72-2.23-14.11,3.18-25.39,14.73-33.81a42.41,42.41,0,0,0,12.78-14.08c2.54-4.72,5.65-9.16,7.9-14,6-13,14.35-24.52,21.62-36.73,3.16-5.32,6.39-10.61,9.15-16.13,7.82-15.62,18.62-29.15,29.48-42.63A72.89,72.89,0,0,0,573,694.83c7-14.41,16.63-27,26.06-39.8a33.2,33.2,0,0,1,11.52-10.19c10.36-5.24,19.55-12.28,29-18.83,5-3.44,10.42-5.84,15.65-8.71,6-3.28,11.83-6.73,16.57-11.78,2-2.12,3.26-4.5,1.84-7.26-7-13.58-16-25-31.75-29-3-.77-6.15-.58-9.24-.66a22.9,22.9,0,0,1-16.62-7.06A112.72,112.72,0,0,0,595.32,545c-8.34-5.35-16.21-11.6-22.42-19.31a150.41,150.41,0,0,1-15.26-23.89,23.66,23.66,0,0,1-2-7.13c-.93-5.07-2.18-10.08-3-15.16a21.9,21.9,0,0,0-14.75-17.72c-12.37-4.35-20.65-13.36-28.92-22.54-3.6-4-7.1-8.05-11-11.68-9.46-8.69-12-19.65-9.65-31.63a234.44,234.44,0,0,0,3.93-33.73,125.91,125.91,0,0,0-2.51-30.72c-1.33-6.73-5.94-11.2-12-14a48.68,48.68,0,0,1-8.55-4.91A14.57,14.57,0,0,1,463,301c-.18-3.91,0-7.84-.25-11.75-.41-7.32-3.19-11-10.2-13A103.73,103.73,0,0,0,441,273.92q-27.06-4.46-42.72-26.93c-6.41-9.19-6.57-25.28-.48-34.61,7.46-11.42,16.16-21.8,25.26-32a112,112,0,0,1,22.13-19.53c6.12-4,10.64-9.7,14.15-16.11,3.15-5.76,7.18-9.48,14.39-9.93,6.94-.43,13.66-2.92,20.64-3.84a30,30,0,0,0,10.44-3.76c9.73-5.4,19.42-10.89,29.14-16.32a71.94,71.94,0,0,0,12.4-9.2c7.71-6.86,17-9,26.79-9.66,6-.38,12,0,18-.14,4.84-.07,9.39,1.26,13.89,2.77a96,96,0,0,0,28.5,4.94c11.57.27,22.91,2.06,33.68,7,20.74,9.44,42.35,9.43,64.24,5,7.87-1.6,15.71-3.36,23.88-2.37a47.16,47.16,0,0,1,9.05,1.83,63,63,0,0,0,20.07,3.17c11.35-.08,22.61,1.3,33.9,2.15a32.56,32.56,0,0,0,6.16.11c22.92-2.73,45.64-6.64,68.19-11.54,5.25-1.14,10.52-2.18,15.93-1.84,7.87.49,15.62-1,23.44-1.28,3.22-.14,6-1.53,8.6-3.18q13.2-8.23,26.11.42,3.09,2.07,6.18,4.11c9.4,6.23,19.47,10.77,30.78,12.19,3.07.39,6.12.94,9.15,1.54a20.82,20.82,0,0,1,10.45,5c10.07,9.34,22.31,14,35.66,15.64a127,127,0,0,1,27.11,6,361.52,361.52,0,0,0,44.57,12.69c8.86,1.91,17.64,4.15,26.49,6.11,12.06,2.67,22.6,8.83,32.51,16,7.67,5.58,16,8,25.56,6.78a44,44,0,0,1,14.78.42c12.38,2.58,24.2,6.36,35.29,12.76,12.46,7.2,26,11.71,40.67,11.09a46.52,46.52,0,0,1,26.56,6.55c9.68,5.75,20.51,8.5,31.16,11.8s20.89,7.06,30.72,12.58,18.31,12.49,26.38,20.19a76.56,76.56,0,0,0,16.55,11.75c9.75,5.33,19,11.58,28.45,17.43a19.8,19.8,0,0,0,3.76,2.13c8.82,3.08,14.85,9.42,20,16.81A90.49,90.49,0,0,0,1502,323.29c9.72,9.07,18.37,9.14,28.45.6a39.46,39.46,0,0,1,21-9.43c10.62-1.4,21-.44,31.41.55,6,.56,11.39,3.53,17.4,4.17,4.54.48,8.78.72,13.32-.94,4.16-1.51,8.86-1.68,13.35-2.1,3.66-.34,6.91,1.36,7.83,4.84,3,11.26,12,17.09,20.67,22.81,9,5.92,17.19,12.76,25.42,19.63,5.23,4.37,10.61,8.54,17,11.13,5,2,10,3.19,15.63,2.55a61.52,61.52,0,0,1,25.07,2.56c18.91,5.86,37.72,12,57,16.45,6.48,1.49,12.22,4.91,18.26,7.55,3.65,1.6,6.34,4.61,8.66,7.79,6.09,8.31,12.3,16.53,18,25.13a137.27,137.27,0,0,0,14.84,18.88c6.7,7,16.07,10,26.09,8.77a110.77,110.77,0,0,0,25.2-6.11A29.9,29.9,0,0,1,1920,456Z"/><path class="a" d="M1920,655.35c-10.8,3.44-21.63,6.8-32.4,10.34-9.82,3.21-16.8,10.21-23.16,17.93-8.93,10.86-14.7,23.31-18.57,36.75-1.25,4.35-2.52,8.73-4.1,13-2,5.24-4.51,6.7-10,6.15a22.51,22.51,0,0,1-10.82-4.2c-9.11-6.4-15.71-15.22-22.29-23.87-7.36-9.67-16.08-16.86-27.7-20.71a26.61,26.61,0,0,1-16.74-15.51,72,72,0,0,1-2.46-8.29c-1.68-6-3-6.67-9.32-6a48.87,48.87,0,0,0-18,6.1c-8.42,4.59-17,4.62-25.47.36a32.81,32.81,0,0,0-14.37-3.25c-7-.11-12.89-2.82-18.16-6.86s-10.22-6.3-17-5.58c-7,.74-14.86-8.41-13.73-16,1.19-8,.64-16,1.77-24,1.34-9.44-1.65-17.89-8.3-25-2.67-2.82-6.19-4.17-9.53-5.6-9.8-4.22-20.17-7.14-30.66-3.78-10.73,3.43-20.11,2.45-29.23-4.19-3-2.16-6.22-3.94-9-6.43-5.27-4.69-11.14-7-18.16-3.83a9.18,9.18,0,0,1-6.68.54c-6-2-12.27-3.62-17.69-7.21a19.61,19.61,0,0,1-5.9-6.23c-3.79-6.15-7.71-12.21-11.39-18.42a122,122,0,0,0-11.2-16.3,28.05,28.05,0,0,1-6.62-18.84c0-4.16-.2-8.24-1.94-12.12a17.39,17.39,0,0,0-6.06-7.64c-7.75-5.25-14.15-11.94-20-19.18a14,14,0,0,0-3-3.14c-6.94-4.56-11-11.41-15.72-18-7.14-10.1-15.46-19.21-25.83-26.34-8.23-5.66-17.34-8.34-27-9.83-8.79-1.35-17.67-1.18-26.48-2.25-9-1.1-17.21-3.62-24.84-8.62-11.55-7.57-23.46-14.59-34.29-23.23a32.62,32.62,0,0,1-6-6.15,21.83,21.83,0,0,0-16.84-9.12c-6.57-.46-13.2-.45-19.7-1.36-11.22-1.57-22.64-.48-33.77-3.46a126.4,126.4,0,0,1-29.23-11.54c-13.7-7.63-26.94-16-40.38-24.06a64.72,64.72,0,0,0-25.46-9.14,77.51,77.51,0,0,1-25.3-7.7c-7.3-3.62-15.1-5.21-23.2-6.09-9-1-17.92-2.69-26.86-4.14a48.74,48.74,0,0,0-15.39.05c-10,1.55-20,3.12-30.11,3-4.4-.06-8.48,1.66-12.76,2.32A106.5,106.5,0,0,1,961.86,290c-11.14-.47-21.61,2.29-32,6-13.62,4.93-26.64,4.89-38.09-5.73a33.22,33.22,0,0,0-14.46-8c-4.19-1.08-8.32-2.41-12.43-3.79-9.7-3.25-18.78-2.08-28.19,2-17.23,7.49-35.24,12.88-53.5,17.32-5.44,1.32-10.9,2.78-15.77,5.4-11.6,6.25-24.24,9.28-36.77,12.66a48,48,0,0,0-21.09,11.95c-8.55,8-14.86,17.61-22.3,26.38a9.93,9.93,0,0,0,2.44,15.38c2.29,1.39,4.32,3.22,6.67,4.46a39.79,39.79,0,0,1,12.88,10.36c4.87,6.06,11.65,9.87,18.81,12.64,8.08,3.11,16.39,5.63,24.59,8.41,4,1.35,8.16,1.06,12.23,1.74a76.24,76.24,0,0,1,13.72,3.65,40.36,40.36,0,0,0,18.17,2.57c6.06-.59,11.77,1,17.42,3.34,9.55,3.91,16.62,11.4,25.16,16.73,12.46,7.79,21,18.78,27.58,31.8,6,11.89,14,22.26,25.33,29.87,10.59,7.14,21.16,14.37,31.31,22.13,6.08,4.65,12.51,8.64,18.9,12.77A79.39,79.39,0,0,1,956.68,542c11.68,12.23,23.59,24.31,35.82,35.91,11.12,10.53,18,22.66,22.92,36.7a94.59,94.59,0,0,0,19.69,33.32,53.9,53.9,0,0,1,12.67,23.82c1.76,7,.13,13.06-5.63,17.76-4.68,3.81-10,3.54-15.31,2.09-7.55-2.07-15-4.38-22.48-6.87-5.82-2-11.55-2.69-17.61-1.15-5.19,1.32-10.5,2.15-15.74,3.24-7.51,1.55-10.8,5.39-10.26,13,.71,9.86,3.57,19.21,10.09,26.77a116.3,116.3,0,0,1,13.1,18c7.16,12.5,18.42,20.35,30,27.93,10.32,6.73,21.93,10.56,33.5,14.23,10.75,3.41,22.1,3.56,33.09,1.59,14.47-2.6,25.47,2.26,34.2,13.35,9.89,12.55,19,37.13,20.56,53,.75,7.42,1,14.81,1,22.22a42.31,42.31,0,0,0,2.39,12.72,258.72,258.72,0,0,1,8,29.87A47.61,47.61,0,0,0,1154,937c7.08,10.7,13.31,21.84,15.36,34.82.9,5.7.08,11.53,1.62,17.21a210.51,210.51,0,0,0,11.1,31.46,37.26,37.26,0,0,0,6.75,9.59,26.62,26.62,0,0,1,6.92,17.44c.18,3.94.72,7.8,1.25,11.68a26.4,26.4,0,0,0,7.83,15.75c1.61,1.59,3,3.36,4.55,5h-3.72a9.62,9.62,0,0,0-1.08-1.51c-8-7.87-11-17.81-11.1-28.65a28.54,28.54,0,0,0-8.29-20.63,34.16,34.16,0,0,1-7.52-12.67c-3.42-9.72-7.31-19.27-9.54-29.4-1.13-5.11-.42-10.28-1.24-15.39-1.85-11.49-6.92-21.58-13.33-31a66.28,66.28,0,0,1-10.17-25,171.09,171.09,0,0,0-5.92-22.1,74,74,0,0,1-3.7-24.3c0-12.62-.91-25.25-6-37-4.61-10.5-7.82-21.68-15.77-30.62s-17.44-13.41-29.6-11.21a73.83,73.83,0,0,1-26.47.27,128,128,0,0,1-46.23-18.39c-12-7.68-22.1-17.18-29.5-29.44a105.72,105.72,0,0,0-10.62-14.43c-7-8.17-10-17.91-11.14-28.32-.87-8.05,3.57-13.86,11.58-15.6,5.84-1.27,11.76-2.2,17.56-3.64,5.44-1.35,10.61-.72,15.82.94,7.66,2.43,15.36,4.76,23.05,7.12a20.75,20.75,0,0,0,3,.71c11.53,1.71,18.83-6.12,16-17.5a49.49,49.49,0,0,0-11.34-21.76c-10-11-16.7-23.93-21.94-37.71-1.24-3.28-2.39-6.6-3.73-9.84a48,48,0,0,0-11.22-16.86c-5.38-5.11-10.08-11-15.4-16-12.83-12.23-24.92-25.25-38.6-36.57a9.92,9.92,0,0,0-1.48-1.12c-15.06-8.27-27.58-20.22-42.19-29.18a103.25,103.25,0,0,1-17.19-13.09,89.16,89.16,0,0,1-18.1-24.9c-5.87-11.65-13.67-21.47-24.81-28.58-4.68-3-8.87-6.72-13.31-10.09-7.87-6-16.5-10.41-26.55-10.65-4.92-.12-9.86.57-14.73-.66a41.84,41.84,0,0,1-5.36-1.43,62.45,62.45,0,0,0-21.63-4.82,5.58,5.58,0,0,1-1.23-.12c-14.2-4.24-28.73-7.64-41.35-16a4.91,4.91,0,0,1-1-.72c-7.75-8.73-17.65-14.69-27-21.42-6.3-4.52-6.81-10.34-2.49-16.71a190.28,190.28,0,0,1,28.37-32.59,23.45,23.45,0,0,1,7.28-4.6,41.92,41.92,0,0,1,5.25-1.84c16.66-4.11,32.56-10.3,48.48-16.65,10.09-4,20.94-6.19,31.49-9,11.39-3.08,22.22-7.67,33.11-12.07,7.55-3.05,15-4.11,22.92-2,6.59,1.76,13.05,3.85,19.53,6a31.23,31.23,0,0,1,11,6.7c11.72,10.48,24.73,10.75,38.66,5.39,9.7-3.73,19.69-6.11,30.19-5.69a102.85,102.85,0,0,0,29.44-3,19.23,19.23,0,0,1,4.89-.62,130.93,130.93,0,0,0,27-2.61c8.51-1.66,16.85-.69,25.21.41,8.58,1.12,17,3.19,25.65,3.94,8.36.71,15.94,4.23,23.38,7.78,6.08,2.89,12.45,4.24,19,5.23A76.5,76.5,0,0,1,1145,309.49c13.65,8.51,27.23,17.18,41.49,24.62,13.65,7.13,28.09,11.79,43.78,11.76,4.51,0,9,.81,13.54,1.13,7,.49,14,.74,20.92,1.34,5.63.49,11,1.81,15,6.4,10.94,12.75,25.42,20.86,39.26,29.8,2.43,1.57,4.92,3,7.36,4.57a33.47,33.47,0,0,0,13.14,5.16,211.93,211.93,0,0,0,21.49,2.34c15.44.67,30.36,3.34,43.15,13,6.3,4.75,11.66,10.47,16.84,16.34,4.64,5.24,9.29,10.52,12.25,17a13.09,13.09,0,0,0,4.44,5.08c5.57,4,9.9,9.28,14.55,14.25a87.53,87.53,0,0,0,12.4,11.09c7.5,5.42,11.28,12.4,10.88,21.6a27.32,27.32,0,0,0,6.84,20c4.14,4.68,7.25,10,10.46,15.3,3.74,6.17,7.52,12.31,11.28,18.47a17.67,17.67,0,0,0,6.55,6.44c4.72,2.6,9.9,4.08,15,5.75,2.61.86,5.3.18,7.86-.81,6.27-2.42,12-.73,16.66,3.45s10.08,7.14,15.33,10.37c6,3.67,12.33,4.16,19,1.92,13.13-4.37,25.74-1.92,37.8,3.83a31,31,0,0,1,17.54,33.14c-1.21,7.78-.61,15.62-1.71,23.42-1,7,6,13.42,13.16,12.91a18.15,18.15,0,0,1,13.27,4c6.41,5.16,13.23,8.78,21.9,8.62,4.67-.08,9.22,1.63,13.64,3.63,7.88,3.56,15.8,3.81,23.65-.77a50.16,50.16,0,0,1,19.91-6.34c4.75-.53,7.47.69,9.39,5.08a51.45,51.45,0,0,1,2.08,7.11c2,7.12,6,12.61,12.68,15.92,3.7,1.82,7.31,4,11.19,5.29,8,2.72,13.68,8.21,18.64,14.69a196.54,196.54,0,0,0,20.72,23.74c3.16,3,6.54,5.71,10.93,6.74,6.28,1.45,8.66.18,10.88-5.87,2.78-7.55,4.54-15.42,7.46-23,5-12.93,12.7-24,22.2-33.94a43.18,43.18,0,0,1,17.81-10.85c10.73-3.63,21.59-6.92,32.39-10.36Z"/><path class="a" d="M1920,753.15c-3.11,3.3-6.14,6.69-9.36,9.88a29.86,29.86,0,0,0-7.94,13.76,59.11,59.11,0,0,1-16.77,28.36c-8.68,8.2-12.55,18.74-12.92,30.52-.24,7.62-.09,15.26.1,22.89a43.2,43.2,0,0,1-2.62,16.4c-3.88,10.29-6.15,21-8,31.75A172.67,172.67,0,0,1,1857.2,929a113.89,113.89,0,0,0-4,18.72,55.81,55.81,0,0,1-3.44,13.14c-3.08,7.8-9,11.24-17.15,9.64-12-2.34-22.1-7.7-28.25-19-3-5.44-3.53-11.46-4.09-17.34-1.29-13.53-5.6-26.17-10.27-38.76-4.3-11.59-9.7-22.78-12.62-34.87a49.17,49.17,0,0,1-1.56-6c-.94-8.55-4.85-15.73-10.27-22.1a142.3,142.3,0,0,1-17.1-25,26.61,26.61,0,0,0-7.28-8.33c-5.88-4.61-10.3-4.53-16.22.06A109.48,109.48,0,0,0,1710.66,812a27.85,27.85,0,0,1-6.68,5.46c-5,2.9-8.8,2.52-12.8-1.7a57.49,57.49,0,0,1-6.44-8.29c-5.68-8.8-13.75-11.11-23.61-9.43-5.48.93-11,1.5-16.55,2.19-9.86,1.24-18.85-.66-26.37-7.57-7.12-6.56-15.45-9-25.12-10.24-10.48-1.31-21-2.79-31.45-5.89s-17.16-8-21.59-17.43a25.06,25.06,0,0,0-8.68-10.31,13.43,13.43,0,0,1-3.53-3.44c-3.78-5.52-9.4-8.6-15.14-11.38a43.54,43.54,0,0,1-15.79-12.63,23.89,23.89,0,0,0-4.86-4.72,23.74,23.74,0,0,1-6.06-6.14c-4.2-6.41-9.52-11.91-14.47-17.69-6.35-7.41-9.59-15.29-7.66-25.55,1.64-8.64,1.43-17.61-1.86-26.23a41.11,41.11,0,0,1-2.53-15.19c.1-10.72-1.53-21.37-1.29-32.12.19-8.81-4.63-15.69-10.2-21.92-4.12-4.61-8.46-9-12.4-13.79a33,33,0,0,0-8-6.82,30.78,30.78,0,0,1-5.1-3.48c-7.67-7.43-16.78-9.65-27.24-8.86-9.15.7-16.59-3.29-23.08-9.86-5.78-5.85-11.48-11.85-18-17a33.81,33.81,0,0,1-6.35-6.73c-3-4.16-6.19-8.24-9.34-12.32-2.71-3.5-6.06-5.29-10.73-4.7-6.64.85-13.17-.38-19.56-2.12a37,37,0,0,1-15.09-8.22c-3.94-3.55-8.56-5.5-13.48-7.24-10.45-3.68-19.71-9.14-26.82-18-5.11-6.39-11.77-11.28-19.79-13.1-10.28-2.33-20.08-6.32-30.45-8.19-.21,0-.4-.12-.61-.14-11.84-.88-21.78-6.36-32.14-11.72-8.78-4.54-17.49-9.11-26-14.19-8.27-5-17.73-6.73-26.78-9.43-7.83-2.34-14.74-6.17-21.82-10-9-4.91-18.1-9.86-28.36-11.85-9.82-1.91-18.85-6-27.82-10.17-4.83-2.25-9.42-2.08-14.39-.53-7.24,2.27-14.08,5.6-21.85,6.56a52,52,0,0,1-26.1-3.14c-11.26-4.52-22.77-8.42-33.45-14.48-7.83-4.45-16.53-7.41-25-10.74-3.22-1.27-6.81-2.52-10.17-2.4a60.59,60.59,0,0,0-28.25,7.73c-3,1.75-4.2,5.06-4.58,8.43-1.35,11.94.08,23,9.45,31.9,2.5,2.36,4,5.72,6.26,8.41,13.28,16,26,32.73,43.53,44.43,7.17,4.8,12.9,10.75,18.75,16.8a76.72,76.72,0,0,0,6.46,5.74c4,3.28,8,6.71,10.9,10.92C978.45,484.7,989,493,999,501.9a49.16,49.16,0,0,1,6.29,5.93c9.56,12.11,21.46,21.59,33.79,30.65,9.38,6.89,16.63,15.4,19.64,26.95,3.77,14.47,12.27,26.48,20.11,38.83a326.27,326.27,0,0,0,30.25,40.59,38.93,38.93,0,0,1,5.94,8.64c4.93,10.11,11.17,19.3,19.63,26.77,6.14,5.42,9.75,12.18,11.82,19.9,4.31,16.06,11.52,30.77,19.56,45.29,6.87,12.42,12.18,25.7,17.24,39,4.19,11,9.79,21.36,15.18,31.8,4.21,8.16,10.66,14.47,17.71,20.39,17,14.31,30.44,31.24,35.87,53.48a204.06,204.06,0,0,1,4.69,24.26c1,8,3.52,15.69,5.51,23.47,2.73,10.65,4.63,21.34,4.21,32.38-.2,5.36-.15,10.73-.1,16.09a31.62,31.62,0,0,0,9.26,22.91,84.37,84.37,0,0,1,14.44,20c4.19,7.8,8.84,15.35,13.2,23.06a46.82,46.82,0,0,1,6.61,22.93,23.6,23.6,0,0,0,1.05,4.8h-3.72c1-10.94-1.94-20.93-7.8-30a185.76,185.76,0,0,1-10.47-18.23c-4.29-8.64-10.32-15.88-16.6-23a34,34,0,0,1-8.41-21.43,134.3,134.3,0,0,1,.06-13.61c.79-14.63-1.87-28.77-5.87-42.71a138.6,138.6,0,0,1-4.32-20.56,133.87,133.87,0,0,0-6.24-27.1c-6.65-19.06-18.79-34.1-34.71-46.27A59.65,59.65,0,0,1,1196,816.75a479.54,479.54,0,0,1-20.29-44.43,232.71,232.71,0,0,0-16.26-34,137.22,137.22,0,0,1-13.17-30.62c-.9-3-1.89-5.9-2.71-8.88a32.44,32.44,0,0,0-9.62-15.55,89.14,89.14,0,0,1-21-28.83c-2-4.45-5.42-7.86-8.6-11.26-5.68-6.07-10.13-13-15.13-19.53-7.91-10.34-14.37-21.62-21.54-32.44-5.17-7.82-8.61-16.44-11.33-25.34a45.9,45.9,0,0,0-18.53-25.49,240.7,240.7,0,0,1-20-15.62,24.61,24.61,0,0,1-3.18-2.93c-9.72-11.86-21.45-21.67-32.49-32.19A146.53,146.53,0,0,1,968.8,475.1a77.42,77.42,0,0,0-13.28-12.93,13.09,13.09,0,0,1-2.39-2c-10.59-13.16-25.2-21.68-37.67-32.68-6.4-5.66-10.52-13.24-16.5-19.21-7.63-7.61-13.05-17-20.29-24.89a19,19,0,0,1-3-4.66c-3.8-8-3.78-16.43-2.67-24.88a13,13,0,0,1,7.23-10.23c8-4.07,16.76-6.11,25.48-7.11,6-.69,12.22,1.77,17.82,4.49a119.64,119.64,0,0,0,17.71,7.28c3,.91,5.33,3.18,8.13,4.42,13,5.74,25.63,12.34,39.91,14.63,8.41,1.35,16.42.15,24.34-2.48a61.05,61.05,0,0,0,6.93-2.65c8.14-3.91,15.93-3,23.64,1.27a79.34,79.34,0,0,0,22.69,8c10.47,2.16,20,6.7,28.95,12.11a111.43,111.43,0,0,0,30.72,12.63,82.69,82.69,0,0,1,26.88,12.21,49.73,49.73,0,0,0,13.14,6.76,45.19,45.19,0,0,1,12.53,6.65A33.1,33.1,0,0,0,1194,427.5a126.11,126.11,0,0,1,24.67,5.76,50.61,50.61,0,0,0,8.94,2.46c10.87,1.79,19.59,7.26,26.92,15.26,4.32,4.72,8.72,9.29,14.53,12.35,4,2.13,8,4.31,12.4,5.47a30.15,30.15,0,0,1,12.88,7c9.27,8.43,20.7,10.83,32.75,10.06,5.78-.38,10.13,1,13.33,5.76,10.22,15.25,24.08,27,37.46,39.27a21.38,21.38,0,0,0,13.54,5.42,74.34,74.34,0,0,0,9.9,0c6.1-.49,11.23,1.73,16.28,4.82,14.87,9.1,25.9,22.17,36.88,35.31a26.63,26.63,0,0,1,6.2,18.37c-.36,11.17,1.38,22.22,1.36,33.36a35.79,35.79,0,0,0,2.38,12.72c3.42,9,3.23,18.29,1.79,27.47-1.17,7.45,0,13.88,4.76,19.7,10.71,13.07,21.22,26.31,33.67,37.84,4.78,4.43,11.12,6.2,16.27,10,2.83,2.11,5.24,4.54,7.82,6.88a93.67,93.67,0,0,1,18.06,22.48,15.12,15.12,0,0,0,12.72,7.77,15.27,15.27,0,0,1,5.24,1.74c2.28,1,4.59,2.1,7,2.25,8.45.5,16.63,2.89,25.1,3.36,7.12.4,13.79,2.58,19.22,7.5,5.93,5.36,12.35,9.47,20.64,10.16,5,.42,9.84-.63,14.73-1.09,4.71-.45,9.38-1.42,14.1-1.82,8.51-.72,15.27,2.5,20.18,9.59a88.15,88.15,0,0,0,6,7.89c4.64,5.34,8.48,5.64,13.71.79,5.89-5.46,11.67-11,18-16,7.9-6.27,14.25-4.76,21.89,2.12,3.54,3.19,5.93,7.46,8,11.7,2.75,5.64,6.53,10.48,10.49,15.24,7.18,8.64,13.11,17.71,14.91,29.3,1.71,11,6.45,21.3,10.63,31.61,7,17.28,12.68,34.84,14.34,53.56.89,10.06,6.48,17.08,15.34,21.74,4.21,2.22,8.26,4.51,13.1,5.26,8.62,1.33,12.66-.81,15.75-9.09a53.72,53.72,0,0,0,2.84-11.38,97.83,97.83,0,0,1,3.72-17.53c3.38-10.22,5.2-20.8,7.12-31.35a133.87,133.87,0,0,1,5.73-21.5,52.18,52.18,0,0,0,3.34-20c-.26-6.6-.21-13.21-.15-19.81.11-13.63,4.83-25.48,14.62-35a54.69,54.69,0,0,0,15.16-25.78,35.51,35.51,0,0,1,7.93-14.55c3.81-4.31,7.86-8.42,11.8-12.62Z"/><path class="a" d="M1851.91,1080a313.22,313.22,0,0,0-18.75-26.14c-10.55-13.34-25-18.16-41.42-18.37a23.91,23.91,0,0,0-6,1.18c-1.79.45-3.51,1.26-5.31,1.64-14.41,3-21.11-.72-27.23-11.13a46,46,0,0,1-5.71-15,178.81,178.81,0,0,0-5.64-21.53,21,21,0,0,1,.28-13.92,83,83,0,0,0,5-21.6c.85-10.86-1.58-19.95-10.38-26.93a206.37,206.37,0,0,0-24.77-17.4c-7.3-4.2-13.89-3-20.28,1.34-4.6,3.12-8.86,6.73-13.26,10.14-1.79,1.39-3.46,2.94-5.3,4.26-5,3.57-10.61,3.29-15.34-.64-2.58-2.14-4.3-5-6.33-7.58-4.29-5.46-5.61-5.9-12.12-4.22a54,54,0,0,1-6.06,1.16,64.1,64.1,0,0,0-15.57,3.81,26.9,26.9,0,0,1-18.15,1.26,21.37,21.37,0,0,1-13-9.74c-1.94-3.17-3.92-6.31-6.09-9.32-4.81-6.67-11.26-9.29-19.44-7.7a91,91,0,0,1-14.08,1.92,18.16,18.16,0,0,1-14.49-5.66c-1.72-1.78-3.5-3.51-5.27-5.23a18.86,18.86,0,0,0-11.52-5.35c-7.22-.78-14.11-3.09-20.78-5.84a21,21,0,0,0-16.24-.4,24.58,24.58,0,0,1-9.11,1.37c-9.07,0-18.15.29-27.23.09-11.54-.26-22.57-2.33-31.42-10.72-1.67-1.58-3.65-2.82-6.08-2.64-7.31.53-11.4-4.09-14.69-9.49a55.07,55.07,0,0,1-6.8-17.2,42.25,42.25,0,0,0-6-14.14c-3.54-5.56-6.63-11.4-9.82-17.18a28.91,28.91,0,0,1-3.22-9.32c-2-12.26-6.07-24-9.75-35.78-3.61-11.61-10.81-21.27-16.89-31.53a12.21,12.21,0,0,0-2.94-3.15c-9.81-7.83-16.68-18.21-23.84-28.24-3.67-5.14-5.67-11.5-7.11-17.69-1.88-8-4-16-4-24.37,0-3.61-1.52-6.81-3.43-9.81a16.85,16.85,0,0,1-2.19-13.65c.39-1.58,1-3.37.6-4.86-2-8.16-3-16.56-6.14-24.44-.22-.57-.76-1-.89-1.62-2-8.56-8.75-12.1-16.07-14.75a57.45,57.45,0,0,1-12.73-6.25,17.06,17.06,0,0,0-13-2.57,8.47,8.47,0,0,1-1.81.34c-6.47-.41-12.91-1.9-19.41-.19-.67.17-1.59-.39-2.31-.76-9-4.65-18.21-8.83-26-15.47-3.33-2.84-7.45-4.43-11-6.89-14.54-10.13-29.55-19.57-43.14-31.06-6.27-5.31-13.22-9.82-20-14.58-3.52-2.5-7.55-4.26-10.58-7.47a8.86,8.86,0,0,0-4.26-2.43,63.64,63.64,0,0,0-14-2c-4.66-.13-6.26,2.76-4.11,6.95a24.49,24.49,0,0,0,3.21,4.53c7.86,9.28,12.54,20.32,17,31.39,2.79,6.89,6.08,13.54,9.12,20.31a35.09,35.09,0,0,0,11.41,13.65,43.42,43.42,0,0,1,14,16.86,132.25,132.25,0,0,0,19.35,29.37,296.43,296.43,0,0,1,18.45,24c5.63,8.13,11.71,15.94,17.56,23.92,1.22,1.66,2.71,3.26,3.4,5.14,5.2,14.08,12.23,27.52,14.78,42.52a70.76,70.76,0,0,1,.54,11.73,225.23,225.23,0,0,0,2.38,30.15c2,14.56,9.74,25.25,22.93,31.67,7.14,3.48,13.34,8.22,19.44,13.12,7.42,6,11.49,14.5,16.2,22.45,3.67,6.2,6.57,12.84,10.73,18.79,2.38,3.39,3.62,7.39,4.89,11.32a107.2,107.2,0,0,0,7.06,17.15c2.3,4.38,5.61,7.58,10.66,8.68,3.67.79,6.9,2.72,10.17,4.47a101.36,101.36,0,0,0,24.73,9.55c6.64,1.55,11.89,5.65,16.8,10.09a188.71,188.71,0,0,1,24.27,27.19,51.31,51.31,0,0,1,10.54,31.73,25.84,25.84,0,0,1-3.4,13c-2.64,4.66-4.89,9.54-7.22,14.37a17.59,17.59,0,0,0-.56,14.4,164.65,164.65,0,0,0,8.53,19.2c3.37,6.42,4.62,12.65.66,19.33-2.7,4.55-3.14,9.66-3.2,14.93-.08,7.86,1.11,15.62,1.33,23.45h-2.47c-.06-7.22-1.24-14.36-1.35-21.59-.1-6.78.78-13.25,4-19.16,2.65-5,2.14-9.44-.29-14.11-3.52-6.79-6.42-13.84-9.26-20.93-2.47-6.16-2.25-12,1.09-17.81,1.85-3.22,3.09-6.79,5-9.93,7.42-12.06,5.16-24.13.22-36.16-2.94-7.16-8.12-12.9-13-18.72a149.33,149.33,0,0,0-23.38-22.89,20.79,20.79,0,0,0-8.33-3.91,92.72,92.72,0,0,1-25.84-10.06,38.44,38.44,0,0,0-10.26-4.21c-4.9-1.08-8.42-4.16-10.78-8.58a112.33,112.33,0,0,1-8.12-19.38,58,58,0,0,0-6.74-13.84c-3.53-5.56-6.6-11.42-9.71-17.23a97.33,97.33,0,0,0-8.27-13.07c-6.62-8.72-15.63-14.47-25.15-19.53-11.87-6.32-20.09-15.63-23.4-28.84a68.57,68.57,0,0,1-1.7-10.37c-.66-7.38-1.54-14.79-1.51-22.19,0-12.79-1.77-25-7.7-36.52a39.65,39.65,0,0,1-2.71-7.57,54.26,54.26,0,0,0-10.88-20.63c-10.5-12.47-18.31-27-29.13-39.19a177.48,177.48,0,0,1-21.62-30.81,14.42,14.42,0,0,1-1.26-2.12c-2.71-8-8.23-13.46-15-18.24A34.1,34.1,0,0,1,1116.72,559c-3.44-7.25-6.84-14.52-9.88-22-4.43-10.86-9-21.73-17.1-30.62-2.78-3-5.56-6.92-3.2-11.15s7-3.14,11.17-2.78c7.16.61,13.07,3.26,19.15,7.44,22.43,15.42,43.07,33.33,66.14,47.77,12,7.53,23,16.74,36,22.75,3.9,1.81,7.52,3.15,11.79,1.67,1.32-.46,3.06-.88,4.22-.4,4.64,1.92,9.25,1.3,14,.67a10.77,10.77,0,0,1,7.21,1.26c7.54,4.72,16,7.56,23.81,11.74,4,2.14,6.31,5.39,8.63,9.25,5.18,8.6,4.91,18.66,8.38,27.66.82,2.12.34,4.51-.26,6.72a16.37,16.37,0,0,0,2.23,14.17c2.35,3.48,3.06,7.52,3.4,11.73,1.56,19.75,6.83,38.07,20.82,53,4.64,5,9.19,10,13.79,15,8.14,8.87,13.91,19.45,18.31,30.59a174.22,174.22,0,0,1,10.6,36.8c1.62,10.2,7.22,18.36,12.24,26.81,3.51,5.93,6.53,11.86,8,18.63a49.05,49.05,0,0,0,6.77,15.86c2.79,4.45,6.3,7.61,12,6.94,2.48-.29,4.28,1.1,6.13,2.47,3.48,2.55,6.73,5.44,10.75,7.24,6.55,2.94,13.53,3.54,20.53,3.73,7.42.2,14.86-.1,22.28-.07a52.07,52.07,0,0,0,15.28-1.75A23.22,23.22,0,0,1,1495,871c7.32,2.78,14.71,5.39,22.63,6a14,14,0,0,1,7.88,3.31c2.06,1.71,4.5,3.15,6.08,5.23,6,8,14.12,8.35,22.86,6.82a29.31,29.31,0,0,0,3.64-.73c10.32-3.14,18.15.69,24.4,8.74a86.88,86.88,0,0,1,5.21,7.67c5.57,9,14.17,13.06,24.32,10.07,9.11-2.69,18.34-4.61,27.55-6.77,5.47-1.28,9.27.13,12.53,4.16,2.21,2.72,4.16,5.65,6.8,8,4.9,4.39,8.7,4.8,13.69.41,4.5-4,9.4-7.37,14-11.16a40.45,40.45,0,0,1,8.42-5.15,16.88,16.88,0,0,1,16,.2c11.27,5.85,21.25,13.46,30.68,21.79,6.5,5.74,8,13.67,7.91,22a61.75,61.75,0,0,1-4.53,23.54,23.27,23.27,0,0,0-.34,17.49,162.36,162.36,0,0,1,5.52,20.93,40.47,40.47,0,0,0,6.94,15.74c4.54,6.15,10.64,9,18.33,7.49,3-.58,6-1.48,9-2.33,2.58-.74,5.13-1.65,7.85-1.6,14.09.27,26.69,4.4,37.28,14.07,7.25,6.61,12.25,15,18.18,22.63,2.66,3.41,5.21,6.91,7.81,10.37Z"/><path class="a" d="M737.66,1080c-.2-.58-.24-1.32-.63-1.73-5.4-5.56-8.72-12.41-12.12-19.24a37.13,37.13,0,0,0-6.56-8.93,50.07,50.07,0,0,1-6.48-8.26c-7.65-12.53-17.17-23.7-25.86-35.46a64.76,64.76,0,0,0-32-23.29c-14-4.65-27.36-10.31-39.55-18.68s-26.2-11.89-40.77-13.1c-12.53-1-25-2.52-37.44-4.33a137.86,137.86,0,0,0-36.3-.15c-11.64,1.38-23.3,3-35.1,1-4-.67-8.24-.36-12.36-.28a179.44,179.44,0,0,1-25.91-1.43c-10.11-1.28-17-6.63-20.58-16.34-2.53-6.9-2.62-14.17-3.57-21.29a56.12,56.12,0,0,0-5.65-18.85,63.85,63.85,0,0,1-2.84-6.18A20.29,20.29,0,0,1,395.94,864a29.26,29.26,0,0,1,5.4-6.74C409.27,850.6,414,841.65,419.2,833c8.89-14.72,18.89-28.6,33.26-38.59,10.38-7.22,19-16.45,28.76-24.37,2.24-1.82,4.37-3.78,6.68-5.49,7.22-5.36,12.75-12.25,18.06-19.37,5.17-6.94,11.56-12.88,16.23-20.25,4-6.36,7.29-12.84,7.83-20.55.35-4.94,2-9.66,3.53-14.39,3.07-9.67,5-19.42,3.79-29.76-.93-8-.13-16,1.07-24,2.74-18.55-.57-36.25-13.76-50.06a127.11,127.11,0,0,1-19.44-26.82c-3.72-6.71-8.9-12.37-13.86-18.16a72.33,72.33,0,0,1-15-26.79c-2.12-7.22-7.2-12.43-12-17.74-4.16-4.57-8.69-8.81-13.13-13.12A29.71,29.71,0,0,1,442,461.89c-.08-14.76-6.24-26.06-17.55-35.09-7.88-6.3-15.61-12.74-24.29-18a36.39,36.39,0,0,1-17.44-24.47c-1.56-7.47-3.53-14.86-4.86-22.36-1.49-8.4-6.81-13.38-14-16.79-13.17-6.26-27.34-9.21-41.48-12.1-10.71-2.19-21.4-4.44-32-7.06a141.9,141.9,0,0,0-19.48-3.35A104.27,104.27,0,0,1,231.75,310c-10.15-5.54-20.92-9.77-31.56-14.23-5.6-2.34-10.32-6-15.6-8.8-2.39-1.26-4.74-2.63-7.45-2.86-6.41-.56-12.57-2.2-18.77-3.79a132.49,132.49,0,0,0-41.09-3.75c-12.29.75-23.28-2.81-33.89-8C71.72,263,60.21,256.81,50,248.77c-11.39-8.92-24.39-12.59-38.53-13.06-3.93-.14-7.83-.21-11.64-1.3v-2.48c7,1.95,14.34,1.17,21.48,2.27,9.55,1.47,18.39,4.42,26.28,10.05,15.82,11.3,32.22,21.54,50.79,27.82a35.89,35.89,0,0,0,12.75,2,232.07,232.07,0,0,1,34.57,1.32,88.43,88.43,0,0,1,9.09,1.78c7.23,1.68,14.36,3.79,21.8,4.43a17.94,17.94,0,0,1,8.07,2.94c13,8.16,27.34,13.49,41.14,20,3.55,1.67,7.29,3,10.62,5,12.55,7.61,26.59,9.71,40.73,11.54,1.64.21,3.29.35,4.89.71,19.73,4.36,39.45,8.79,59.18,13.12a125.29,125.29,0,0,1,25.62,9.08,22.35,22.35,0,0,1,13,15.62c1.71,7.43,3.51,14.85,4.89,22.35,2.2,12,8.48,20.77,19.08,26.69,9.42,5.26,17.45,12.44,25.5,19.48,10.14,8.87,15.05,20.15,15.22,33.84a29.38,29.38,0,0,0,12.13,24c6.57,4.88,11.32,11.38,16.61,17.41a28.46,28.46,0,0,1,5.38,10.37A77.14,77.14,0,0,0,497,544.12a83.45,83.45,0,0,1,13.31,19.3c3.24,6.23,6.56,12.46,12.08,17,11.14,9.25,16,21.68,18.43,35.44,1.28,7.2,2,14.41-.06,21.46-2.34,8.16-1.83,16.36-.89,24.5,1,8.64-.47,16.86-2.8,25-2,7.13-4.24,14.15-5.29,21.57-1.53,10.84-8.18,19.19-14.92,27.34-2.75,3.34-5.93,6.38-8.37,9.93-7.58,11-17.91,19.22-27.77,28-10.8,9.6-22.19,18.44-33.17,27.79-11.23,9.58-19.89,21.43-27.19,34.22-4.31,7.55-8.71,15-15.43,20.73a32.71,32.71,0,0,0-3,3.15c-7.91,8.88-9.53,18.47-3.26,28.95,5.37,9,6.15,19.13,7.17,29.18a55.92,55.92,0,0,0,2.44,11.47c2.77,8.54,8.75,13.32,17.55,14.4a148.49,148.49,0,0,0,20.34,1.49,171.67,171.67,0,0,1,24.08,1c9.26,1.16,18.56-.21,27.72-1.4a157.92,157.92,0,0,1,44.92.78c12.63,2,25.39,2.74,38,4.45,11.19,1.51,21.83,4.54,31.35,10.67,13.06,8.41,26.71,15.39,41.63,20.05,17.1,5.34,29,17.52,39.38,31.53,7.74,10.43,15.06,21.19,23,31.45,6.45,8.38,12.6,16.75,17,26.36,1.72,3.79,6.11,5.7,6.91,10.08Z"/><path class="a" d="M-.22,151.46c3.91.67,6.76,3.13,9.13,6,7,8.37,15.84,13.47,26,17.08,14.87,5.29,28,14.06,41.37,22.18,9.87,6,20,11.59,29.64,17.93,5.22,3.41,11.11,4.83,17.55,5.12,17.06.78,34.21.56,51.1,3.7,11.51,2.15,22.1,6.35,31.51,13.56a63.23,63.23,0,0,0,20,10.79c9.39,2.86,18.49,3.4,27.87-.08,13.34-4.95,27.19-8.37,40.7-12.77,12.45-4.05,25.1-8.37,35.67-16.69,7.84-6.16,10.45-14.55,9.33-24.16a38,38,0,0,0-3.47-11.21c-3.8-8.31-2.73-17-1.52-25.54a13.33,13.33,0,0,1,6.08-9c11-7.48,15.48-18.91,18.82-31a14.91,14.91,0,0,0-1.22-10.84c-4.05-8.14-7.29-16.61-10.74-25a38.43,38.43,0,0,0-6-9.38A15.55,15.55,0,0,0,329.28,66c-13.36,0-24.78,3.89-32,16.15a27.78,27.78,0,0,1-3.24,4.52,13.53,13.53,0,0,1-17.37,2.92,26.16,26.16,0,0,1-9.48-8.71c-4.15-6.42-9.09-12.25-13.88-18.19a13.14,13.14,0,0,1-1.88-2.44c-3.64-7.9-9.83-12.75-17.65-16.36-4.57-2.11-8.84-3.88-14-4.08-11.22-.46-20.61-5.4-28.5-13.24a95.59,95.59,0,0,0-12.24-10.37c-6.34-4.5-13.08-5.56-20.55-4.17C148.08,14,138.31,12.27,130,5.37A46,46,0,0,1,117.39-12h2.48a46.85,46.85,0,0,0,9,13.17c7.47,7.62,17,10.83,27.18,8.62C169.2,7,179,12.28,188.26,20.09A64.86,64.86,0,0,1,194,25.72c7.32,7.85,16.57,11.35,27.06,11.69,4.7.15,8.62,2,12.85,3.73,9.51,3.88,15.48,10.77,20.74,19.27,4.85,7.84,11,14.92,16.85,22.08,7.16,8.79,16.92,9.72,23.3-.93,7.68-12.81,19.42-17.94,33.74-18a18.92,18.92,0,0,1,16.24,8.63A55.74,55.74,0,0,1,352.45,87a109.06,109.06,0,0,0,7.91,18.11,17.17,17.17,0,0,1,1.31,13.75,93.21,93.21,0,0,1-7.11,17.78c-2,3.63-4.28,7-7.82,9.41-12.37,8.44-12.7,21.07-9.22,33.62.61,2.18,1.66,4.23,2.42,6.36,2.42,6.75,3.26,13.55,1.07,20.58-1.82,5.9-4.76,10.78-10.07,14.33A96.05,96.05,0,0,1,314.09,230c-9.71,4-19.31,8.27-29.68,10.53s-20.55,6.14-30.61,9.8c-14.26,5.19-27.15,1.34-39.76-5.15a35.86,35.86,0,0,1-6.21-4.06c-12.6-10.26-27.29-14.93-43.21-16.66-5.33-.59-10.63-1.37-16-1.16-9.7.39-19.29-1.43-29-1.3-5.87.07-11.19-2.81-16-5.94C87.42,205.62,70.8,196.06,54.3,186.32c-8.19-4.83-17-8.47-25.84-11.83-6.89-2.62-13-6-17.52-12.08-2.8-3.81-6.4-7-11.16-8.47Z"/><path class="a" d="M419.48,1080a7.55,7.55,0,0,0-2.84-6.49c-7.58-6.2-13-14.21-17.73-22.6-3.69-6.55-8.68-12-13.28-17.79a6.74,6.74,0,0,0-2.77-2.41c-6.18-1.86-8.21-7-10.08-12.29-.93-2.64-2-4.8-5.75-3.95-3.25.73-4.5-.76-4.44-4a2.53,2.53,0,0,1,.13-1.22c3.47-5.17.52-8.61-2.93-12.25-11.7-12.32-20.93-26.52-30-40.73-7.44-11.62-13.76-23.94-20-36.26-.75-1.47-1.43-3-2.17-4.45-5.51-11-14.41-16.08-26.61-15.07-4.1.34-8.19.92-12.26,1.53a33,33,0,0,0-13.09,5.25,163.34,163.34,0,0,1-39,18.35,71.07,71.07,0,0,0-25.21,14.06c-6,5.25-12.87,9.6-19.42,14.27a9.91,9.91,0,0,1-3.91,1.74c-21.83,3.82-40.71,14-58.33,26.92-5.14,3.78-10.48,7.32-15.92,10.65-11.81,7.23-25,9.3-38.54,9.71a58,58,0,0,0-18.14,3.18c-10.29,3.65-21.08,5.67-31.31,9.58-1.88.71-4,.74-6,1.09v-2.48c2-.35,4.17-.38,6.05-1.1,10.41-4,21.42-6,31.89-9.78a54.6,54.6,0,0,1,17.55-3c13.1-.28,25.94-2.3,37.39-9.24a208.2,208.2,0,0,0,17.89-12.14c15.14-11.51,32-20,50.24-24.41,12.63-3,21.34-11,31-18.13a104.86,104.86,0,0,1,14-9c10.8-5.63,23.06-7.57,33.65-13.75,5-2.91,10.21-5.35,15-8.57,9.92-6.65,21.32-7.73,32.64-7,10.05.61,17.8,6,22.21,15.52a352.46,352.46,0,0,0,19.08,35.35c10.19,16.67,20.34,33.53,34.41,47.4,4,3.91,6.27,7.63,2.69,12.88-.19.28-.07.79,0,1.2a1.51,1.51,0,0,0,.25.53c6.12-.13,7.11.37,9.3,6.36,1.82,5,4.19,8.91,9.32,11.52,5.38,2.73,8.62,8.27,11.81,13.22,4,6.21,8.52,12.09,12,18.71a29,29,0,0,0,8.25,9.08,19.86,19.86,0,0,1,6.9,9.92Z"/><path class="a" d="M-.22,1052.76a67.23,67.23,0,0,1,7.39.39c10.28,1.65,19.3-.54,26.23-8.68,3.69-4.33,7.62-5.57,13.53-4.72,10.92,1.57,21-2.12,29-9.61a96.45,96.45,0,0,1,41.59-23.27,5.17,5.17,0,0,0,1.77-.54c6.59-5.13,14.66-8.63,19.68-15.4,4.32-5.83,9.93-9.24,16.22-11.8a67.07,67.07,0,0,0,10-4.69c7-4.28,14.42-7.93,21.6-12a34.11,34.11,0,0,1,17.9-3.91,157.71,157.71,0,0,0,32-2.07c11.15-1.88,21.81-6,32.4-10,3.08-1.17,6.2-2.24,9.29-3.38,9.81-3.62,18.21-1,25.54,5.91a49.74,49.74,0,0,1,4.83,5.61c5.55,7.17,10.12,15,16.13,21.89,2.5,2.83,3.43,6.52,4.77,10,1.87,4.83,3.83,9.63,9.51,11.4a6.05,6.05,0,0,1,3.9,4.51c1.43,5.3,4.43,9.69,7.65,14,3,4,5.64,8.13,8.58,12.11,3.09,4.18,6.62,7.75,11.78,9.58,6.8,2.42,9.85,7.76,10.11,14.8.11,2.88-.07,5.78.11,8.65.36,5.61,3.65,9.56,9.09,11.14a19.07,19.07,0,0,0,3.62.8,13,13,0,0,1,10.64,6.49h-3.71a7,7,0,0,0-5.36-3.75c-1.83-.3-3.66-.65-5.45-1.12-6.8-1.78-10.85-6.66-11.31-13.72-.18-2.88-.08-5.78-.1-8.66,0-5.78-2.73-10.18-8-12.14-6.38-2.39-10.85-6.61-14.32-12.14-5.24-8.35-12.47-15.46-15.61-25.12a6.52,6.52,0,0,0-3.79-3.87,14.57,14.57,0,0,1-8.05-9c-3.27-10.32-10.48-18.12-16.45-26.71-3.41-4.91-6.85-9.78-11.26-13.92-6-5.62-12.85-7.13-20.56-4.94A93.74,93.74,0,0,0,269,949.06c-9.12,3.94-18.7,6.61-28.21,9.07-10.74,2.78-22,3.16-33.15,2.86-9.38-.25-17.66,2.49-25.86,6.92-8.84,4.77-17.19,10.5-26.85,13.85-5.36,1.86-10.39,5-13.67,10.16a20.13,20.13,0,0,1-7.73,7,12,12,0,0,0-3.59,2.38c-4.81,5.66-11.46,7.43-18.17,9.75a92.28,92.28,0,0,0-33.36,19.6c-9.79,9.14-21,13.51-34.43,11.19-3.29-.57-5.56.68-7.5,3.12-4.71,5.93-10.92,9.24-18.3,10.65a21.21,21.21,0,0,1-8.58.25,39.2,39.2,0,0,0-9.85-.61Z"/><path class="a" d="M-.22,115.56a9.7,9.7,0,0,1,5.8,1.84c3.65,2.42,7.8,3.71,11.77,5.42,7.45,3.21,14.56,3.35,21.89-.86s15.89-4,24-5.13c10-1.43,20.14-1.42,30.23-1.34,23.11.19,42.11,9.35,56.13,27.57,9.14,11.87,19.23,22.54,31.17,31.49a104,104,0,0,0,15.84,9.62c4.45,2.22,6.37,1.18,6.12-3.75a90.21,90.21,0,0,0-6.05-28.9c-4.56-11.56-10.81-22.23-16.65-33.12a42,42,0,0,0-8.2-10.79A98.2,98.2,0,0,1,155.92,88C151.57,81,145.49,75.74,138.75,71.3a31.57,31.57,0,0,0-16.83-5.46c-6.18-.16-12.26-1.59-18.28-3-4.72-1.13-9.09-3.46-11.91-7.34C86.9,48.83,80.29,44.24,74.26,39,61.94,28.19,54.62,14.84,53-1.55,52.69-5,52.2-8.49,51.78-12h2.47c.94,10.46,2,20.79,7,30.46a67.53,67.53,0,0,0,17,20.93c5.21,4.36,10.63,8.44,14.8,13.93,3.39,4.45,8.11,6.84,13.67,7.71,5.89.93,11.67,2.41,17.72,2.55,5.68.12,10.92,2.48,15.53,5.6,6,4,11.7,8.46,15.83,14.58a150.3,150.3,0,0,0,17.32,21.7c8.65,8.78,14,19.92,19.37,30.76,5.95,12,11.1,24.41,12.33,38a43,43,0,0,1,.43,8c-.51,5.28-3.19,6.93-8,4.71a96.16,96.16,0,0,1-24.39-15.65c-8.69-7.87-17.16-16-24-25.73C140,133,127.52,125.36,113,120.64a59.08,59.08,0,0,0-18.22-2.77,292,292,0,0,0-42.52,2.73,40.35,40.35,0,0,0-14.68,4.6c-5.61,3.2-11.34,3.31-17.28,1.13C15.09,124.41,9.81,122.64,5,119.8A10.28,10.28,0,0,0-.22,118Z"/><path class="a" d="M1721.91,1080a77.16,77.16,0,0,0-15.08-30.18c-5.72-7.21-15.78-9.08-24.2-5.23a49.52,49.52,0,0,0-14.89,9.87c-5.68,5.76-12.29,8.9-20.28,9.18a39.46,39.46,0,0,0-12.08,2.38c-6.28,2.28-12.87,2.76-19.4,3.58a10.68,10.68,0,0,1-9.91-4,116.51,116.51,0,0,0-9.33-9.9,18.88,18.88,0,0,1-6-13.81c-.46-14.5-5.61-27.84-10.67-41.1-3.45-9-14-13.37-23.12-10-7.26,2.72-14.88,3.19-22.33,4.6-7,1.32-13.93-.46-20.63-2.81-3.31-1.15-6.67-2.14-10-3.24a9.91,9.91,0,0,0-8.34,1c-8.06,4.54-12.28,17.73-7.26,25.54,5.81,9,7.1,19.22,9.48,29.21,2.18,9.09.52,17.57-3.49,25.8-1.45,3-2.67,6-4,9h-2.48a74.36,74.36,0,0,1,3.15-7.38c5.62-10.1,6.42-20.58,3.55-31.69-2.21-8.57-4.11-17-8.89-24.83-4.57-7.47-1-22.74,9.06-28a13.27,13.27,0,0,1,10.15-1c6,1.65,11.57,4.32,17.73,5.36a40.92,40.92,0,0,0,17.14-.34c6.35-1.62,12.87-2.26,19.21-4.29,8.2-2.64,20.12,3.14,23.12,11.29,5.1,13.89,10.48,27.8,11.06,42.89a16.09,16.09,0,0,0,5.45,12,58.54,58.54,0,0,1,7.9,8.66c2.85,3.81,6.52,5,11.38,4.38a109.19,109.19,0,0,0,21-4.68c4.37-1.43,9-1.08,13.42-2a24.72,24.72,0,0,0,11.85-6.19c5.54-4.93,11.44-9.49,18.42-12.21,8.83-3.44,17.08-2.31,23.91,4.59,9.23,9.31,14.33,20.93,17.81,33.37Z"/><path class="a" d="M335.29,1080c1.28-1.87,2.43-3.84,3.86-5.58,5-6,4.86-12.6,1.62-19.1-3.57-7.18-7.73-14.07-11.7-21-2-3.56-5-5.57-9.06-6.86-9-2.89-17.8-3.77-27.29-1.45-7.5,1.83-15.53,1.24-23.2,3.08-8.8,2.11-17.71,3.78-26.59,5.56a46.09,46.09,0,0,1-6.72.86c-8.69.47-17.27-1-25.86-1.79-7-.67-13.33-4.23-19.56-7.39-7.74-3.91-15.69-7.29-23.69-10.58-5.29-2.18-10.59-3.39-16.07-.46a9.08,9.08,0,0,1-6,.76,11.28,11.28,0,0,0-9.78,2.82c-5,4.47-11.11,7-17,10-2.95,1.47-5.85,3-8.84,4.45a45.64,45.64,0,0,0-15.74,11.71,45.74,45.74,0,0,1-21.42,14c-4.73,1.52-9.14,3.6-12.64,7.41a15.41,15.41,0,0,1-11,5c-7.17.31-13,3.51-17.87,8.61H24.54c4.53-2.84,9-5.78,13.62-8.48a21.75,21.75,0,0,1,10.1-2.56,13.23,13.23,0,0,0,9.34-4.13,32.77,32.77,0,0,1,13.68-8.11c8.36-2.73,15.79-6.84,21.2-14.14,3.11-4.2,7.44-7.08,12.09-9.43,5.69-2.88,11.39-5.76,17.13-8.54a56,56,0,0,0,11.09-6.68c3.82-3.1,8-5,13.07-4.29a10.57,10.57,0,0,0,6-1.16c4.89-2.18,9.66-1.53,14.39.38,7.82,3.17,15.75,6.17,23.16,10.24,17.93,9.88,37,11.4,56.85,8.46,8.17-1.21,16.1-3.44,24.17-5.11,6.06-1.25,12.09-2.46,18.33-2.31a19.37,19.37,0,0,0,6.07-1c7-2.14,13.81-1.55,20.69.46,12.74,3.73,12.74,3.7,19.05,15.38,2.25,4.17,4.39,8.4,6.84,12.44,4.82,8,6.45,17.11-1.78,26.08a30,30,0,0,0-1.85,2.47Z"/><path class="a" d="M1583.25-12A187.85,187.85,0,0,1,1611,4.23a112.18,112.18,0,0,0,39.56,17c16,3.53,30,11.17,43.17,20.64,5.39,3.88,11,7.26,17.64,8.61,5.09,1,9.61,3.78,14.08,6.29,12.51,7,26.41,9.08,40.16,11.7,1.21.23,2.48.22,3.67.5,12.33,3,24.84,3.28,37.46,3.46a79.51,79.51,0,0,0,37.53-8.83,177.61,177.61,0,0,1,24-9.87c5-1.66,8.84-.66,12.26,3.07,1.53,1.67,3.1,3.32,4.7,4.92a39.45,39.45,0,0,0,19.09,10.89c5.22,1.24,10.48,2.26,15.72,3.38v2.47c-8.4-2-17.11-2.75-25-6.84-5.74-3-10.89-6.55-14.85-11.83-3.62-4.84-5.93-5.27-11.83-3.54a138,138,0,0,0-24,9.83c-11.56,5.94-23.8,8.55-36.89,8.86-19.6.47-38.5-3.38-57.54-7-11.56-2.21-21.82-7.29-32.18-12.36a29.92,29.92,0,0,0-6.87-2.73c-7.73-1.56-14-5.77-20.26-10.22-8.41-6-17.18-11.43-27-14.9-4.85-1.73-9.84-3.09-14.83-4.37-14.29-3.68-27.81-9-39.93-17.67-4.86-3.46-10-6.53-15.1-9.68A44.16,44.16,0,0,0,1582-9.23c-2.19-.6-4.44-1-6.13-2.73Z"/><path class="a" d="M164.44,1080a66.87,66.87,0,0,0-20.67-5.22c-13.51-1-27,1.31-40.42.23-2-.16-4.17.19-6.12-.27-5.74-1.35-10,.5-13.26,5.26H77.78c3.21-1.82,6.52-3.43,9.28-6,2.19-2,5-2.36,8.06-2.12a235.19,235.19,0,0,0,37.63.11,57,57,0,0,1,20.18,1.63c8.15,2.3,16.22,4.74,24.71,5.4a12,12,0,0,1,2.89,1Z"/><path class="a" d="M-.22,69.75a5.11,5.11,0,0,0,3.39-4.09c1-5,2.69-10.13,2.63-15.18C5.68,40.48,9.41,32,14.33,23.8,21,12.58,25.07.23,29.49-12H32C27.54,1,23,14,15.85,25.81,11.43,33.14,8.4,40.7,8.31,49.51,8.26,54.77,6.75,60,5.76,65.27a11.84,11.84,0,0,1-6,8.19Z"/><path class="a" d="M1920,875.72c-6.36,7.41-11.72,15.41-14.69,24.84-2.35,7.48-2,14.75,2,21.49,5.12,8.5,9.72,17.2,12.66,26.72V955c-1.77-2.14-2.26-4.84-3-7.38a75.2,75.2,0,0,0-9.59-20.65c-7.43-11-7.45-22.18-1.73-33.89,3.92-8,9.33-15,14.33-22.27Z"/><path class="a" d="M1920,1010.67c-2,9.43-4.41,18.8-6,28.31a244.27,244.27,0,0,1-6.68,28.85,38.38,38.38,0,0,1-5.9,12.17H1899c6.44-9.41,8.67-20.37,10.74-31.2,2.26-11.88,5.1-23.63,7.23-35.53,1-5.41.77-11.06,3.08-16.22Z"/><path class="a" d="M1842-12c3,3.43,6.81,5.88,10.66,8.18,4.14,2.47,8.75,2.29,13.11.87a43.94,43.94,0,0,0,15.85-9h3.71A47.07,47.07,0,0,1,1863.09.17a13.25,13.25,0,0,1-9-.75c-5.81-3-11.36-6.41-15.75-11.38Z"/><path class="a" d="M564.21,838.9a27.86,27.86,0,0,1,.92-8,311.45,311.45,0,0,0,9.68-41.55c1.08-6.53,4.3-11.8,8.74-16.71,6.86-7.57,15-12.29,24.73-15.55,13.94-4.69,23.43-14.06,25.77-29.52,1.74-11.46,8.77-19.81,17.61-26.7a15.85,15.85,0,0,1,14.09-2.76,156.13,156.13,0,0,1,20.69,6.23c13,5.21,26.72,8.6,40.44,11.36,9.48,1.9,18.72,4.31,26.45,9.84,10.67,7.64,22.64,9.18,35.06,10.34,11.26,1,22.66,1.41,33.62,4.68a50.16,50.16,0,0,1,6.37,2.35,10.52,10.52,0,0,1,6.23,7.92c1.29,6.23,1.49,12.28-1.69,18.06a18.3,18.3,0,0,0-1.25,2.83c-3.25,9.1-1.08,13,8.42,14.93a53.58,53.58,0,0,0,7.33,1.1c9.86.63,18.29,4.65,26,10.6,6.59,5.11,6.64,12.36,4.91,19.2-1.87,7.36-2.15,14.65-1.95,22.07a129.74,129.74,0,0,1-2.75,30.11c-3.25,15.41-11.06,27.45-27,32.59-4.12,1.32-8.07,3.16-12.2,4.47a66.92,66.92,0,0,0-15.45,7.74,30.09,30.09,0,0,0-8.85,8.5,99.16,99.16,0,0,1-39.22,34.18,244.77,244.77,0,0,1-25.49,11.1c-4.88,1.71-9,1-11.93-3.36-5.46-8.14-14.61-12.73-20-20.93-1.26-1.93-3.47-2.86-5.61-3.7-2.89-1.11-5.78-2.22-8.62-3.44-6.34-2.73-11.93-6.4-16.12-12.1a57.1,57.1,0,0,0-9.78-10.25c-9-7.38-14.39-16.63-15.18-28.62-.45-6.78-3.15-12.73-10.62-15.24-2.66-.89-4.9-3-7.35-4.53A25.06,25.06,0,0,0,623,862.42c-8.16,1.14-16.38,1.68-24.54,3-13.31,2.08-26.85-5.44-32.27-17A20.93,20.93,0,0,1,564.21,838.9ZM833,758.06c0-9.51-2.48-12.77-11.06-15.09a64.32,64.32,0,0,0-9.05-2.05c-11.66-1.39-23.33-2.71-35-3.81A45.88,45.88,0,0,1,757,730.22c-7.84-5-15.92-9.67-25.33-11.09A127.26,127.26,0,0,1,713,714.71c-8.67-2.67-17.82-3.75-26.12-7.54-6.83-3.11-14-4.92-21.21-6.68a14.83,14.83,0,0,0-13.91,3.25c-7.72,6.77-14.26,14.33-15.57,25.16a24.8,24.8,0,0,1-3.28,10.57c-6.15,9.65-13.88,17.36-25.31,20.54a43.71,43.71,0,0,0-7,2.41c-11.72,5.6-20.82,14-23.33,27.07-2.68,14-5.41,27.93-9.7,41.52-4.15,13.13,2.44,21.52,9.34,26.51,6.22,4.51,13.21,6.84,21,5.55,7.53-1.24,15.15-1.78,22.67-2.87a31.64,31.64,0,0,1,22.4,4.81c2.26,1.43,4.44,3.24,6.93,4,3.75,1.14,5.74,3.64,7.58,6.77a24.06,24.06,0,0,1,3.36,11.14c.44,9.2,4.45,16.54,11,22.77,4.64,4.4,9.59,8.54,13.36,13.74,3.91,5.4,9.13,8.85,15.12,11.36,2.48,1,5,2.06,7.49,3a18.28,18.28,0,0,1,9.23,6.92c1.63,2.35,3.2,4.87,5.73,6.43a42.53,42.53,0,0,1,10.76,10.06c5.07,6.39,6.8,6.72,14.28,3.62,5.15-2.12,10.09-4.74,15.26-6.81a97.24,97.24,0,0,0,44.37-35.23,41.79,41.79,0,0,1,14.65-13c7.48-4.06,15.48-6.81,23.49-9.52,14.6-4.94,22.5-15.6,25.5-30.08a133.64,133.64,0,0,0,2.82-29.49c-.14-7.83-.07-15.53,2-23.3,1.9-7.19,1.29-14.41-6.23-19.06-6.93-4.29-14.12-7.65-22.43-8.09a44.14,44.14,0,0,1-12.7-2.57c-5.34-1.92-6.67-4.08-6.47-9.81a23.53,23.53,0,0,1,2.75-10.07A18.53,18.53,0,0,0,833,758.06Z"/></svg>